<?xml version="1.0" encoding="utf-8"?>
<!-- Generator: Adobe Illustrator 16.0.0, SVG Export Plug-In . SVG Version: 6.00 Build 0)  -->
<!DOCTYPE svg PUBLIC "-//W3C//DTD SVG 1.1//EN" "http://www.w3.org/Graphics/SVG/1.1/DTD/svg11.dtd">
<svg version="1.1" xmlns="http://www.w3.org/2000/svg" xmlns:xlink="http://www.w3.org/1999/xlink" x="0px" y="0px"
	 width="789.902px" height="600px" viewBox="0 0 789.902 600" enable-background="new 0 0 789.902 600" xml:space="preserve">
<g id="Calque_4_1_" display="none">
	<ellipse display="inline" fill="#020202" cx="348.542" cy="249" rx="551.285" ry="386.993"/>
</g>
<g id="Calque_2_1_">
	
		<image display="none" overflow="visible" width="670" height="404" xlink:href="8975B1CE.jpg"  transform="matrix(1.5313 0 0 1.5313 -119.5415 4.5039)">
	</image>
	<circle fill="#FFFFFF" cx="362.485" cy="507.668" r="12.042"/>
	<circle fill="#FFFFFF" cx="227.884" cy="376.996" r="12.042"/>
	<circle fill="#FFFFFF" cx="89.741" cy="351.021" r="12.042"/>
	<circle fill="#FFFFFF" cx="240.872" cy="24.556" r="12.042"/>
	<circle fill="#FFFFFF" cx="693.673" cy="368.731" r="12.042"/>
	<circle fill="#FFFFFF" cx="423.291" cy="187.788" r="12.042"/>
	<circle fill="#FFFFFF" cx="246.185" cy="507.464" r="12.042"/>
</g>
<g id="Calque_1">
</g>
<g id="Calque_3">
	<path fill="none" stroke="#FFFFFF" stroke-width="4" stroke-miterlimit="10" d="M362.485,510.264
		C287.51,409.465,304.63,398.248,227.884,376.996"/>
	<path fill="none" stroke="#FFFFFF" stroke-width="4" stroke-miterlimit="10" d="M89.742,351.021
		c0,14.357,110.396-22.434,138.143,25.976"/>
	<path fill="none" stroke="#FFFFFF" stroke-width="4" stroke-miterlimit="10" d="M240.872,24.555
		c0,180.449-78.517,265.069-151.13,326.466"/>
	<path fill="none" stroke="#FFFFFF" stroke-width="4" stroke-miterlimit="10" d="M423.292,187.788
		c-51.36-95.933-122.794-66.415-182.419-163.233"/>
	<path fill="none" stroke="#FFFFFF" stroke-width="4" stroke-miterlimit="10" d="M423.292,187.788
		c0,100.014,120.933,180.944,270.382,180.944"/>
	<path fill="none" stroke="#FFFFFF" stroke-width="4" stroke-miterlimit="10" d="M693.673,368.731
		c0,76.682-240.273,242.044-447.488,138.732"/>
	<g>
		<path fill="#FFFFFF" d="M373.371,491.841c-0.391,0-0.732-0.138-1.025-0.415c-0.277-0.293-0.415-0.635-0.415-1.025v-28.345
			c0-0.391,0.138-0.732,0.415-1.025c0.293-0.276,0.635-0.415,1.025-0.415c0.406,0,0.748,0.139,1.025,0.415
			c0.276,0.293,0.415,0.635,0.415,1.025v17.212h3.32c2.164-0.081,3.987-0.919,5.469-2.515c1.465-1.595,2.156-3.482,2.075-5.664
			v-9.033c0-0.391,0.138-0.732,0.415-1.025c0.293-0.276,0.635-0.415,1.025-0.415c0.406,0,0.748,0.139,1.025,0.415
			c0.276,0.293,0.415,0.635,0.415,1.025v8.96c0.081,2.019-0.375,3.906-1.367,5.664c-0.961,1.709-2.287,3.052-3.979,4.028
			c1.692,0.993,3.019,2.344,3.979,4.053c0.992,1.758,1.448,3.654,1.367,5.688c-0.017,0.391-0.163,0.717-0.439,0.977
			c-0.277,0.277-0.61,0.415-1.001,0.415h-0.049c-0.391-0.016-0.725-0.171-1.001-0.464c-0.277-0.293-0.407-0.643-0.391-1.05
			c0.081-2.164-0.61-4.044-2.075-5.64c-1.481-1.595-3.305-2.433-5.469-2.515h-3.32v8.228c0,0.391-0.139,0.732-0.415,1.025
			C374.119,491.703,373.777,491.841,373.371,491.841z"/>
		<path fill="#FFFFFF" d="M395.916,464.448c-0.537,0-0.993-0.187-1.367-0.562c-0.375-0.374-0.562-0.83-0.562-1.367
			s0.187-0.992,0.562-1.367c0.374-0.374,0.83-0.562,1.367-0.562s0.992,0.188,1.367,0.562c0.374,0.375,0.562,0.83,0.562,1.367
			s-0.188,0.993-0.562,1.367C396.908,464.262,396.453,464.448,395.916,464.448z M397.283,469.746c0-0.374-0.131-0.699-0.391-0.977
			c-0.277-0.26-0.603-0.391-0.977-0.391c-0.375,0-0.7,0.131-0.977,0.391c-0.261,0.277-0.391,0.603-0.391,0.977v20.728
			c0,0.375,0.13,0.7,0.391,0.977c0.276,0.261,0.602,0.391,0.977,0.391c0.374,0,0.699-0.13,0.977-0.391
			c0.26-0.276,0.391-0.602,0.391-0.977V469.746z"/>
		<path fill="#FFFFFF" d="M406.302,491.841c-0.342,0-0.644-0.122-0.903-0.366c-0.244-0.26-0.366-0.562-0.366-0.903v-11.353
			c0-2.539,0.903-4.712,2.71-6.519c1.79-1.79,3.955-2.686,6.494-2.686h1.538c0.342,0,0.643,0.122,0.903,0.366
			c0.244,0.244,0.366,0.546,0.366,0.903c0,0.358-0.122,0.659-0.366,0.903c-0.261,0.244-0.562,0.366-0.903,0.366h-1.538
			c-1.84,0-3.41,0.651-4.712,1.953c-1.303,1.303-1.953,2.873-1.953,4.712v11.353c0,0.342-0.122,0.644-0.366,0.903
			C406.961,491.719,406.66,491.841,406.302,491.841z"/>
		<path fill="#FFFFFF" d="M438.881,470.186c0.357,0,0.659,0.122,0.903,0.366s0.366,0.546,0.366,0.903v11.255
			c0,2.523-0.896,4.672-2.686,6.445c-1.774,1.791-3.923,2.686-6.445,2.686h-0.073c-2.523,0-4.672-0.895-6.445-2.686
			c-1.791-1.773-2.686-3.922-2.686-6.445v-11.255c0-0.357,0.122-0.659,0.366-0.903s0.545-0.366,0.903-0.366
			c0.342,0,0.635,0.122,0.879,0.366c0.26,0.244,0.391,0.546,0.391,0.903v11.255c0,1.823,0.643,3.378,1.929,4.663
			c1.285,1.286,2.84,1.929,4.663,1.929h0.073c1.822,0,3.377-0.643,4.663-1.929c1.285-1.285,1.929-2.84,1.929-4.663v-11.255
			c0-0.357,0.13-0.659,0.391-0.903C438.247,470.308,438.54,470.186,438.881,470.186z"/>
		<path fill="#FFFFFF" d="M447.242,491.841c-0.358,0-0.659-0.122-0.903-0.366s-0.366-0.545-0.366-0.903v-11.255
			c0-2.522,0.895-4.671,2.686-6.445c1.773-1.79,3.922-2.686,6.445-2.686h0.073c2.522,0,4.671,0.896,6.445,2.686
			c1.79,1.774,2.686,3.923,2.686,6.445v11.255c0,0.358-0.122,0.659-0.366,0.903s-0.546,0.366-0.903,0.366
			c-0.342,0-0.635-0.122-0.879-0.366c-0.261-0.244-0.391-0.545-0.391-0.903v-11.255c0-1.822-0.644-3.377-1.929-4.663
			c-1.286-1.285-2.841-1.929-4.663-1.929h-0.073c-1.823,0-3.378,0.644-4.663,1.929c-1.286,1.286-1.929,2.841-1.929,4.663v11.255
			c0,0.358-0.131,0.659-0.391,0.903C447.876,491.719,447.583,491.841,447.242,491.841z"/>
		<path fill="#FFFFFF" d="M478.454,491.841c-2.539,0-4.704-0.903-6.494-2.71c-1.807-1.79-2.71-3.955-2.71-6.494v-3.418
			c0-2.539,0.903-4.712,2.71-6.519c1.79-1.79,3.955-2.686,6.494-2.686h0.073c2.539,0,4.712,0.896,6.519,2.686
			c1.79,1.807,2.686,3.979,2.686,6.519v11.353c0,0.342-0.122,0.644-0.366,0.903c-0.261,0.244-0.562,0.366-0.903,0.366
			c-0.358,0-0.659-0.122-0.903-0.366c-0.244-0.26-0.366-0.562-0.366-0.903v-1.587c-1.823,1.904-4.045,2.856-6.665,2.856H478.454z
			 M471.789,482.637c0,1.84,0.65,3.41,1.953,4.712c1.302,1.303,2.872,1.953,4.712,1.953h0.073c1.839,0,3.409-0.65,4.712-1.953
			c1.302-1.302,1.953-2.872,1.953-4.712v-3.418c0-1.839-0.651-3.409-1.953-4.712c-1.303-1.302-2.873-1.953-4.712-1.953h-0.073
			c-1.84,0-3.41,0.651-4.712,1.953c-1.303,1.303-1.953,2.873-1.953,4.712V482.637z"/>
	</g>
	<g>
		<path fill="#FFFFFF" d="M94.161,561.503c-0.391,0-0.732-0.138-1.025-0.415c-0.277-0.293-0.415-0.635-0.415-1.025v-28.345
			c0-0.732,0.358-1.196,1.074-1.392c0.716-0.195,1.253,0.024,1.611,0.659l13.672,23.682v-22.949c0-0.406,0.138-0.748,0.415-1.025
			c0.293-0.276,0.635-0.415,1.025-0.415c0.407,0,0.749,0.139,1.025,0.415c0.276,0.277,0.415,0.619,0.415,1.025v28.345
			c0,0.732-0.35,1.196-1.05,1.392c-0.13,0.033-0.261,0.049-0.391,0.049c-0.554,0-0.969-0.244-1.245-0.732l-13.672-23.657v22.949
			c0,0.391-0.139,0.732-0.415,1.025C94.909,561.365,94.567,561.503,94.161,561.503z"/>
		<path fill="#FFFFFF" d="M121.344,534.11c-0.537,0-0.993-0.187-1.367-0.562c-0.375-0.374-0.562-0.83-0.562-1.367
			s0.187-0.992,0.562-1.367c0.374-0.374,0.83-0.562,1.367-0.562s0.993,0.188,1.367,0.562c0.374,0.375,0.562,0.83,0.562,1.367
			s-0.188,0.993-0.562,1.367C122.337,533.924,121.881,534.11,121.344,534.11z M122.711,539.408c0-0.374-0.13-0.699-0.391-0.977
			c-0.277-0.26-0.603-0.391-0.977-0.391c-0.375,0-0.7,0.131-0.977,0.391c-0.261,0.277-0.391,0.603-0.391,0.977v20.728
			c0,0.375,0.13,0.7,0.391,0.977c0.276,0.261,0.602,0.391,0.977,0.391c0.374,0,0.7-0.13,0.977-0.391
			c0.26-0.276,0.391-0.602,0.391-0.977V539.408z"/>
		<path fill="#FFFFFF" d="M131.731,561.503c-0.358,0-0.659-0.122-0.903-0.366s-0.366-0.545-0.366-0.903v-28.735
			c0-0.342,0.122-0.635,0.366-0.879s0.545-0.366,0.903-0.366c0.342,0,0.635,0.122,0.879,0.366s0.366,0.537,0.366,0.879v17.773
			c1.074-0.016,1.709-0.016,1.904,0c1.627-0.342,2.995-1.131,4.102-2.368c1.106-1.221,1.741-2.669,1.904-4.346
			c0.032-0.276,0.163-0.504,0.391-0.684c0.211-0.195,0.464-0.276,0.757-0.244c0.293,0.033,0.529,0.155,0.708,0.366
			c0.179,0.229,0.252,0.488,0.22,0.781c-0.146,1.563-0.643,3.003-1.489,4.321c-0.847,1.286-1.929,2.319-3.247,3.101
			c1.709,0.798,3.076,1.994,4.102,3.589c1.058,1.645,1.587,3.435,1.587,5.371c0,0.391-0.033,0.806-0.098,1.245
			c-0.033,0.31-0.171,0.57-0.415,0.781c-0.228,0.212-0.505,0.317-0.83,0.317c-0.049,0-0.098,0-0.146,0
			c-0.342-0.049-0.619-0.211-0.83-0.488c-0.212-0.276-0.301-0.586-0.269-0.928c0.049-0.325,0.073-0.635,0.073-0.928
			c0-2.034-0.725-3.784-2.173-5.249c-1.449-1.448-3.198-2.173-5.249-2.173h-1.001v8.496c0,0.358-0.122,0.659-0.366,0.903
			S132.073,561.503,131.731,561.503z"/>
		<path fill="#FFFFFF" d="M150.76,561.503c-0.358,0-0.659-0.122-0.903-0.366s-0.366-0.545-0.366-0.903v-28.735
			c0-0.342,0.122-0.635,0.366-0.879s0.545-0.366,0.903-0.366c0.342,0,0.635,0.122,0.879,0.366s0.366,0.537,0.366,0.879v17.773
			c1.074-0.016,1.709-0.016,1.904,0c1.627-0.342,2.995-1.131,4.102-2.368c1.106-1.221,1.741-2.669,1.904-4.346
			c0.032-0.276,0.163-0.504,0.391-0.684c0.211-0.195,0.464-0.276,0.757-0.244c0.293,0.033,0.529,0.155,0.708,0.366
			c0.179,0.229,0.252,0.488,0.22,0.781c-0.146,1.563-0.643,3.003-1.489,4.321c-0.847,1.286-1.929,2.319-3.247,3.101
			c1.709,0.798,3.076,1.994,4.102,3.589c1.058,1.645,1.587,3.435,1.587,5.371c0,0.391-0.033,0.806-0.098,1.245
			c-0.033,0.31-0.171,0.57-0.415,0.781c-0.228,0.212-0.505,0.317-0.83,0.317c-0.049,0-0.098,0-0.146,0
			c-0.342-0.049-0.619-0.211-0.83-0.488c-0.212-0.276-0.301-0.586-0.269-0.928c0.049-0.325,0.073-0.635,0.073-0.928
			c0-2.034-0.725-3.784-2.173-5.249c-1.449-1.448-3.198-2.173-5.249-2.173h-1.001v8.496c0,0.358-0.122,0.659-0.366,0.903
			S151.102,561.503,150.76,561.503z"/>
		<path fill="#FFFFFF" d="M176.064,561.503c-2.539,0-4.704-0.903-6.494-2.71c-1.807-1.79-2.71-3.955-2.71-6.494v-3.418
			c0-2.539,0.903-4.712,2.71-6.519c1.79-1.79,3.955-2.686,6.494-2.686h0.073c2.539,0,4.712,0.896,6.519,2.686
			c1.79,1.807,2.686,3.979,2.686,6.519v11.353c0,0.342-0.122,0.644-0.366,0.903c-0.261,0.244-0.562,0.366-0.903,0.366
			c-0.358,0-0.659-0.122-0.903-0.366c-0.244-0.26-0.366-0.562-0.366-0.903v-1.587c-1.823,1.904-4.045,2.856-6.665,2.856H176.064z
			 M169.399,552.299c0,1.84,0.651,3.41,1.953,4.712c1.302,1.303,2.873,1.953,4.712,1.953h0.073c1.839,0,3.41-0.65,4.712-1.953
			c1.302-1.302,1.953-2.872,1.953-4.712v-3.418c0-1.839-0.651-3.409-1.953-4.712c-1.302-1.302-2.873-1.953-4.712-1.953h-0.073
			c-1.839,0-3.41,0.651-4.712,1.953c-1.302,1.303-1.953,2.873-1.953,4.712V552.299z"/>
		<path fill="#FFFFFF" d="M197.071,561.381c-1.791-0.797-3.215-2.018-4.272-3.662c-1.074-1.644-1.611-3.442-1.611-5.396v-20.825
			c0-0.342,0.122-0.635,0.366-0.879s0.537-0.366,0.879-0.366c0.358,0,0.659,0.122,0.903,0.366s0.366,0.537,0.366,0.879v20.825
			c0,1.449,0.398,2.792,1.196,4.028c0.797,1.237,1.863,2.148,3.198,2.734c0.325,0.146,0.545,0.383,0.659,0.708
			c0.13,0.326,0.122,0.644-0.024,0.952c-0.228,0.505-0.61,0.757-1.147,0.757C197.404,561.503,197.233,561.463,197.071,561.381z"/>
		<path fill="#FFFFFF" d="M220.666,539.848c0.358,0,0.659,0.122,0.903,0.366s0.366,0.546,0.366,0.903v11.255
			c0,2.523-0.896,4.672-2.686,6.445c-1.774,1.791-3.923,2.686-6.445,2.686h-0.073c-2.523,0-4.671-0.895-6.445-2.686
			c-1.791-1.773-2.686-3.922-2.686-6.445v-11.255c0-0.357,0.122-0.659,0.366-0.903s0.545-0.366,0.903-0.366
			c0.342,0,0.635,0.122,0.879,0.366c0.26,0.244,0.391,0.546,0.391,0.903v11.255c0,1.823,0.643,3.378,1.929,4.663
			c1.286,1.286,2.84,1.929,4.663,1.929h0.073c1.823,0,3.377-0.643,4.663-1.929c1.286-1.285,1.929-2.84,1.929-4.663v-11.255
			c0-0.357,0.13-0.659,0.391-0.903C220.031,539.97,220.324,539.848,220.666,539.848z"/>
		<path fill="#FFFFFF" d="M235.789,561.503c-2.539,0-4.704-0.903-6.494-2.71c-1.807-1.79-2.71-3.955-2.71-6.494v-3.418
			c0-2.539,0.903-4.703,2.71-6.494c1.79-1.807,3.955-2.71,6.494-2.71h0.073c2.539,0,4.704,0.903,6.494,2.71
			c1.807,1.791,2.71,3.955,2.71,6.494v3.418c0,2.539-0.903,4.704-2.71,6.494c-1.791,1.807-3.955,2.71-6.494,2.71H235.789z
			 M229.124,552.299c0,1.84,0.651,3.41,1.953,4.712c1.302,1.303,2.873,1.953,4.712,1.953h0.073c1.839,0,3.41-0.65,4.712-1.953
			c1.302-1.302,1.953-2.872,1.953-4.712v-3.418c0-1.839-0.651-3.409-1.953-4.712c-1.302-1.302-2.873-1.953-4.712-1.953h-0.073
			c-1.839,0-3.41,0.651-4.712,1.953c-1.302,1.303-1.953,2.873-1.953,4.712V552.299z"/>
		<path fill="#FFFFFF" d="M251.888,561.503c-0.358,0-0.659-0.122-0.903-0.366s-0.366-0.545-0.366-0.903v-28.735
			c0-0.342,0.122-0.635,0.366-0.879s0.545-0.366,0.903-0.366c0.342,0,0.635,0.122,0.879,0.366s0.366,0.537,0.366,0.879v17.773
			c1.074-0.016,1.709-0.016,1.904,0c1.627-0.342,2.995-1.131,4.102-2.368c1.106-1.221,1.741-2.669,1.904-4.346
			c0.032-0.276,0.163-0.504,0.391-0.684c0.211-0.195,0.464-0.276,0.757-0.244c0.293,0.033,0.529,0.155,0.708,0.366
			c0.179,0.229,0.252,0.488,0.22,0.781c-0.146,1.563-0.643,3.003-1.489,4.321c-0.847,1.286-1.929,2.319-3.247,3.101
			c1.709,0.798,3.076,1.994,4.102,3.589c1.058,1.645,1.587,3.435,1.587,5.371c0,0.391-0.033,0.806-0.098,1.245
			c-0.033,0.31-0.171,0.57-0.415,0.781c-0.228,0.212-0.505,0.317-0.83,0.317c-0.049,0-0.098,0-0.146,0
			c-0.342-0.049-0.619-0.211-0.83-0.488c-0.212-0.276-0.301-0.586-0.269-0.928c0.049-0.325,0.073-0.635,0.073-0.928
			c0-2.034-0.725-3.784-2.173-5.249c-1.449-1.448-3.198-2.173-5.249-2.173h-1.001v8.496c0,0.358-0.122,0.659-0.366,0.903
			S252.23,561.503,251.888,561.503z"/>
		<path fill="#FFFFFF" d="M277.119,561.503c-2.507,0-4.647-0.887-6.421-2.661c-1.774-1.773-2.661-3.914-2.661-6.421v-20.947
			c0-0.342,0.122-0.635,0.366-0.879s0.545-0.366,0.903-0.366c0.342,0,0.635,0.122,0.879,0.366s0.366,0.537,0.366,0.879v8.276h5.103
			c0.342,0,0.635,0.122,0.879,0.366s0.366,0.546,0.366,0.903c0,0.342-0.122,0.635-0.366,0.879s-0.537,0.366-0.879,0.366h-5.103
			v10.156c0,1.807,0.643,3.354,1.929,4.639c1.286,1.286,2.832,1.929,4.639,1.929h1.514c0.358,0,0.659,0.122,0.903,0.366
			s0.366,0.537,0.366,0.879c0,0.358-0.122,0.659-0.366,0.903s-0.545,0.366-0.903,0.366H277.119z"/>
		<path fill="#FFFFFF" d="M292.974,561.503c-2.539,0-4.704-0.903-6.494-2.71c-1.807-1.79-2.71-3.955-2.71-6.494v-3.418
			c0-2.539,0.903-4.712,2.71-6.519c1.79-1.79,3.955-2.686,6.494-2.686h0.073c2.539,0,4.712,0.896,6.519,2.686
			c1.79,1.807,2.686,3.979,2.686,6.519v11.353c0,0.342-0.122,0.644-0.366,0.903c-0.261,0.244-0.562,0.366-0.903,0.366
			c-0.358,0-0.659-0.122-0.903-0.366c-0.244-0.26-0.366-0.562-0.366-0.903v-1.587c-1.823,1.904-4.045,2.856-6.665,2.856H292.974z
			 M286.309,552.299c0,1.84,0.651,3.41,1.953,4.712c1.302,1.303,2.873,1.953,4.712,1.953h0.073c1.839,0,3.41-0.65,4.712-1.953
			c1.302-1.302,1.953-2.872,1.953-4.712v-3.418c0-1.839-0.651-3.409-1.953-4.712c-1.302-1.302-2.873-1.953-4.712-1.953h-0.073
			c-1.839,0-3.41,0.651-4.712,1.953c-1.302,1.303-1.953,2.873-1.953,4.712V552.299z"/>
	</g>
	<g>
		<path fill="#FFFFFF" d="M245.022,358.675c-0.195-0.064-0.334-0.195-0.415-0.391c-0.082-0.179-0.09-0.366-0.024-0.562
			l10.718-29.004c0.114-0.309,0.342-0.464,0.684-0.464c0.325,0,0.545,0.155,0.659,0.464c0.016,0,3.589,9.668,10.718,29.004
			c0.065,0.195,0.057,0.383-0.024,0.562c-0.082,0.195-0.22,0.326-0.415,0.391c-0.082,0.033-0.171,0.049-0.269,0.049
			c-0.342,0-0.57-0.162-0.684-0.488l-3.467-9.424h-13.037l-3.491,9.424c-0.114,0.326-0.342,0.488-0.684,0.488
			c-0.098,0-0.146,0-0.146,0S245.104,358.708,245.022,358.675z M250.003,347.322h11.938l-5.957-16.187L250.003,347.322z"/>
		<path fill="#FFFFFF" d="M280.604,358.724c-2.376,0-4.411-0.838-6.104-2.515c-1.677-1.692-2.515-3.727-2.515-6.104v-21.265
			c0-0.179,0.065-0.333,0.195-0.464c0.114-0.113,0.26-0.171,0.439-0.171c0.179,0,0.333,0.058,0.464,0.171
			c0.114,0.131,0.171,0.285,0.171,0.464v13.354c0.781-1.253,1.807-2.246,3.076-2.979c1.318-0.765,2.742-1.147,4.272-1.147h0.073
			c2.36,0,4.386,0.847,6.079,2.539c1.676,1.677,2.515,3.703,2.515,6.079v3.418c0,2.377-0.838,4.411-2.515,6.104
			c-1.693,1.677-3.719,2.515-6.079,2.515H280.604z M273.256,350.105c0,2.035,0.716,3.769,2.148,5.2
			c1.432,1.433,3.166,2.148,5.2,2.148h0.073c2.018,0,3.743-0.716,5.176-2.148c1.432-1.432,2.148-3.165,2.148-5.2v-3.418
			c0-2.018-0.716-3.743-2.148-5.176c-1.433-1.432-3.158-2.148-5.176-2.148h-0.073c-2.035,0-3.768,0.717-5.2,2.148
			c-1.433,1.433-2.148,3.158-2.148,5.176V350.105z"/>
		<path fill="#FFFFFF" d="M295.825,333.553c-0.407,0-0.757-0.146-1.05-0.439s-0.439-0.643-0.439-1.05
			c0-0.423,0.146-0.781,0.439-1.074s0.643-0.439,1.05-0.439c0.407,0,0.757,0.146,1.05,0.439s0.439,0.651,0.439,1.074
			c0,0.407-0.146,0.757-0.439,1.05S296.232,333.553,295.825,333.553z M295.825,337.898c-0.179,0-0.334,0.058-0.464,0.171
			c-0.114,0.131-0.171,0.285-0.171,0.464v19.556c0,0.18,0.057,0.326,0.171,0.439c0.13,0.131,0.285,0.195,0.464,0.195
			c0.179,0,0.333-0.064,0.464-0.195c0.13-0.113,0.195-0.26,0.195-0.439v-19.556c0-0.179-0.065-0.333-0.195-0.464
			C296.159,337.956,296.004,337.898,295.825,337.898z"/>
		<path fill="#FFFFFF" d="M307.726,348.616c-1.481,0-2.751-0.521-3.809-1.563c-1.042-1.058-1.563-2.327-1.563-3.809
			c0-1.48,0.521-2.742,1.563-3.784c1.058-1.058,2.327-1.587,3.809-1.587h5.542c1.481,0,2.75,0.529,3.809,1.587
			c0.13,0.114,0.195,0.261,0.195,0.439c0,0.18-0.065,0.334-0.195,0.464c-0.13,0.131-0.285,0.195-0.464,0.195
			c-0.179,0-0.334-0.064-0.464-0.195c-0.781-0.797-1.742-1.196-2.881-1.196h-5.542c-1.123,0-2.083,0.399-2.881,1.196
			c-0.798,0.798-1.196,1.758-1.196,2.881s0.398,2.084,1.196,2.881c0.797,0.798,1.758,1.196,2.881,1.196h5.225
			c1.563,0,2.905,0.562,4.028,1.685c1.106,1.107,1.66,2.45,1.66,4.028c0,1.563-0.554,2.905-1.66,4.028
			c-1.123,1.107-2.466,1.66-4.028,1.66h-6.079c-1.563,0-2.905-0.553-4.028-1.66c-0.114-0.13-0.171-0.284-0.171-0.464
			c0-0.179,0.057-0.333,0.171-0.464c0.13-0.13,0.285-0.195,0.464-0.195c0.179,0,0.333,0.065,0.464,0.195
			c0.862,0.863,1.896,1.294,3.101,1.294h6.079c1.204,0,2.238-0.431,3.101-1.294c0.862-0.862,1.294-1.896,1.294-3.101
			c0-1.221-0.432-2.262-1.294-3.125c-0.863-0.862-1.896-1.294-3.101-1.294H307.726z"/>
		<path fill="#FFFFFF" d="M325.192,358.724c-0.179,0-0.326-0.064-0.439-0.195c-0.13-0.113-0.195-0.26-0.195-0.439V328.89
			c0-0.179,0.065-0.325,0.195-0.439c0.114-0.13,0.26-0.195,0.439-0.195c0.179,0,0.333,0.065,0.464,0.195
			c0.114,0.114,0.171,0.261,0.171,0.439v18.652h1.099c0.374-0.016,0.708-0.04,1.001-0.073c1.872-0.276,3.458-1.09,4.761-2.441
			c1.302-1.351,2.051-2.97,2.246-4.858c0.016-0.162,0.089-0.301,0.22-0.415c0.146-0.113,0.301-0.162,0.464-0.146
			c0.179,0.017,0.325,0.09,0.439,0.22c0.114,0.146,0.163,0.302,0.146,0.464c-0.179,1.742-0.781,3.305-1.807,4.688
			c-1.009,1.367-2.295,2.393-3.857,3.076c1.888,0.635,3.418,1.767,4.59,3.394c1.204,1.645,1.807,3.491,1.807,5.542
			c0,0.358-0.024,0.749-0.073,1.172c-0.049,0.375-0.261,0.562-0.635,0.562c-0.033,0-0.057,0-0.073,0
			c-0.179-0.032-0.326-0.113-0.439-0.244c-0.098-0.146-0.139-0.301-0.122-0.464c0.049-0.374,0.073-0.716,0.073-1.025
			c0-2.246-0.798-4.175-2.393-5.786c-1.611-1.595-3.54-2.393-5.786-2.393h-1.66v9.277c0,0.18-0.057,0.326-0.171,0.439
			C325.526,358.659,325.371,358.724,325.192,358.724z"/>
		<path fill="#FFFFFF" d="M349.739,358.724c-2.393,0-4.436-0.846-6.128-2.539c-1.693-1.692-2.539-3.735-2.539-6.128v-3.467
			c0-2.376,0.846-4.41,2.539-6.104c1.692-1.692,3.735-2.539,6.128-2.539h0.073c2.393,0,4.435,0.847,6.128,2.539
			c1.691,1.693,2.539,3.728,2.539,6.104v3.467c0,2.393-0.848,4.436-2.539,6.128c-1.693,1.693-3.736,2.539-6.128,2.539H349.739z
			 M342.366,350.057c0,2.035,0.716,3.776,2.148,5.225c1.448,1.433,3.19,2.148,5.225,2.148h0.073c2.034,0,3.767-0.716,5.201-2.148
			c1.447-1.448,2.172-3.189,2.172-5.225v-3.467c0-2.034-0.725-3.768-2.172-5.2c-1.434-1.448-3.167-2.173-5.201-2.173h-0.073
			c-2.035,0-3.776,0.725-5.225,2.173c-1.433,1.433-2.148,3.166-2.148,5.2V350.057z"/>
	</g>
	<g>
		<path fill="#FFFFFF" d="M15.861,299.808c-0.195,0-0.366-0.073-0.513-0.22s-0.22-0.317-0.22-0.513v-29.053
			c0-0.374,0.179-0.61,0.537-0.708c0.374-0.098,0.659,0.017,0.854,0.342l15.381,26.66v-26.294c0-0.211,0.073-0.391,0.22-0.537
			c0.13-0.13,0.301-0.195,0.513-0.195c0.211,0,0.382,0.065,0.513,0.195c0.146,0.146,0.22,0.326,0.22,0.537v29.053
			c0,0.375-0.179,0.61-0.537,0.708c-0.065,0.017-0.13,0.024-0.195,0.024c-0.277,0-0.488-0.122-0.635-0.366l-15.381-26.66v26.294
			c0,0.195-0.073,0.366-0.22,0.513S16.072,299.808,15.861,299.808z"/>
		<path fill="#FFFFFF" d="M48.513,299.808c-2.393,0-4.436-0.846-6.128-2.539c-1.709-1.709-2.563-3.76-2.563-6.152v-3.491
			c0-2.393,0.854-4.443,2.563-6.152c1.692-1.692,3.735-2.539,6.128-2.539h0.098c2.393,0,4.435,0.847,6.128,2.539
			c1.709,1.709,2.563,3.76,2.563,6.152v11.548c0,0.163-0.065,0.31-0.195,0.439c-0.13,0.131-0.285,0.195-0.464,0.195
			c-0.179,0-0.326-0.064-0.439-0.195c-0.13-0.13-0.195-0.276-0.195-0.439v-3.516c-0.781,1.27-1.815,2.271-3.101,3.003
			c-1.335,0.766-2.767,1.147-4.297,1.147H48.513z M41.116,291.116c0,2.035,0.724,3.776,2.173,5.225
			c1.448,1.449,3.19,2.173,5.225,2.173h0.098c2.034,0,3.776-0.724,5.225-2.173c1.448-1.448,2.173-3.189,2.173-5.225v-3.491
			c0-2.034-0.725-3.775-2.173-5.225c-1.449-1.448-3.19-2.173-5.225-2.173h-0.098c-2.035,0-3.776,0.725-5.225,2.173
			c-1.449,1.449-2.173,3.19-2.173,5.225V291.116z"/>
		<path fill="#FFFFFF" d="M64.54,299.808c-0.163,0-0.31-0.064-0.439-0.195c-0.13-0.13-0.195-0.276-0.195-0.439v-11.523
			c0-2.393,0.846-4.435,2.539-6.128c1.709-1.709,3.76-2.563,6.152-2.563h1.538c0.179,0,0.333,0.065,0.464,0.195
			c0.13,0.131,0.195,0.285,0.195,0.464c0,0.18-0.065,0.334-0.195,0.464c-0.13,0.114-0.285,0.171-0.464,0.171h-1.538
			c-2.035,0-3.776,0.725-5.225,2.173c-1.449,1.449-2.173,3.19-2.173,5.225v11.523c0,0.163-0.065,0.31-0.195,0.439
			C64.873,299.743,64.718,299.808,64.54,299.808z"/>
		<path fill="#FFFFFF" d="M78.515,279.788c-0.065-0.162-0.065-0.325,0-0.488c0.081-0.162,0.203-0.284,0.366-0.366
			c0.163-0.064,0.325-0.057,0.488,0.024c0.163,0.065,0.285,0.18,0.366,0.342l7.422,18.14l7.397-18.14
			c0.081-0.162,0.203-0.276,0.366-0.342c0.163-0.081,0.325-0.089,0.488-0.024c0.163,0.082,0.285,0.204,0.366,0.366
			c0.065,0.163,0.065,0.326,0,0.488l-8.032,19.604c-0.114,0.277-0.31,0.415-0.586,0.415c-0.293,0-0.497-0.138-0.61-0.415
			L78.515,279.788z"/>
		<path fill="#FFFFFF" d="M102.281,274.637c-0.407,0-0.757-0.146-1.05-0.439s-0.439-0.643-0.439-1.05
			c0-0.423,0.146-0.781,0.439-1.074s0.643-0.439,1.05-0.439c0.407,0,0.757,0.146,1.05,0.439s0.439,0.651,0.439,1.074
			c0,0.407-0.146,0.757-0.439,1.05S102.688,274.637,102.281,274.637z M102.281,278.982c-0.179,0-0.334,0.058-0.464,0.171
			c-0.114,0.131-0.171,0.285-0.171,0.464v19.556c0,0.18,0.057,0.326,0.171,0.439c0.13,0.131,0.285,0.195,0.464,0.195
			c0.179,0,0.333-0.064,0.464-0.195c0.13-0.113,0.195-0.26,0.195-0.439v-19.556c0-0.179-0.065-0.333-0.195-0.464
			C102.614,279.04,102.459,278.982,102.281,278.982z"/>
		<path fill="#FFFFFF" d="M111.911,299.808c-0.179,0-0.326-0.064-0.439-0.195c-0.13-0.113-0.195-0.26-0.195-0.439v-29.199
			c0-0.179,0.065-0.325,0.195-0.439c0.114-0.13,0.26-0.195,0.439-0.195c0.179,0,0.333,0.065,0.464,0.195
			c0.114,0.114,0.171,0.261,0.171,0.439v18.652h1.099c0.374-0.016,0.708-0.04,1.001-0.073c1.872-0.276,3.458-1.09,4.761-2.441
			c1.302-1.351,2.051-2.97,2.246-4.858c0.016-0.162,0.089-0.301,0.22-0.415c0.146-0.113,0.301-0.162,0.464-0.146
			c0.179,0.017,0.325,0.09,0.439,0.22c0.114,0.146,0.163,0.302,0.146,0.464c-0.179,1.742-0.781,3.305-1.807,4.688
			c-1.009,1.367-2.295,2.393-3.857,3.076c1.888,0.635,3.418,1.767,4.59,3.394c1.204,1.645,1.807,3.491,1.807,5.542
			c0,0.358-0.024,0.749-0.073,1.172c-0.049,0.375-0.261,0.562-0.635,0.562c-0.033,0-0.057,0-0.073,0
			c-0.179-0.032-0.326-0.113-0.439-0.244c-0.098-0.146-0.139-0.301-0.122-0.464c0.049-0.374,0.073-0.716,0.073-1.025
			c0-2.246-0.798-4.175-2.393-5.786c-1.611-1.595-3.54-2.393-5.786-2.393h-1.66v9.277c0,0.18-0.057,0.326-0.171,0.439
			C112.244,299.743,112.089,299.808,111.911,299.808z"/>
	</g>
	<g>
		<path fill="#FFFFFF" d="M271.757,11.723c-0.195,0-0.366-0.065-0.513-0.195c-0.146-0.146-0.22-0.325-0.22-0.537
			c0-0.195,0.073-0.366,0.22-0.513s0.317-0.22,0.513-0.22h16.528c0.211,0,0.391,0.073,0.537,0.22s0.22,0.317,0.22,0.513
			c0,0.212-0.073,0.391-0.22,0.537c-0.146,0.13-0.326,0.195-0.537,0.195h-7.52v28.369c0,0.195-0.073,0.366-0.22,0.513
			s-0.317,0.22-0.513,0.22c-0.212,0-0.391-0.073-0.537-0.22c-0.13-0.146-0.195-0.317-0.195-0.513V11.723H271.757z"/>
		<path fill="#FFFFFF" d="M294.375,40.824c-0.163,0-0.31-0.065-0.439-0.195c-0.13-0.13-0.195-0.276-0.195-0.439V28.666
			c0-2.393,0.846-4.435,2.539-6.128c1.709-1.709,3.76-2.563,6.152-2.563h1.538c0.179,0,0.333,0.065,0.464,0.195
			c0.13,0.13,0.195,0.285,0.195,0.464c0,0.179-0.065,0.334-0.195,0.464c-0.13,0.114-0.285,0.171-0.464,0.171h-1.538
			c-2.035,0-3.776,0.725-5.225,2.173c-1.449,1.449-2.173,3.19-2.173,5.225v11.523c0,0.163-0.065,0.31-0.195,0.439
			C294.708,40.759,294.554,40.824,294.375,40.824z"/>
		<path fill="#FFFFFF" d="M317.164,40.824c-2.393,0-4.436-0.846-6.128-2.539c-1.693-1.692-2.539-3.735-2.539-6.128V28.69
			c0-2.376,0.846-4.411,2.539-6.104c1.692-1.692,3.735-2.539,6.128-2.539h0.073c2.393,0,4.435,0.847,6.128,2.539
			c1.692,1.693,2.539,3.728,2.539,6.104v3.467c0,2.393-0.847,4.436-2.539,6.128c-1.693,1.693-3.735,2.539-6.128,2.539H317.164z
			 M309.791,32.157c0,2.035,0.716,3.776,2.148,5.225c1.448,1.433,3.19,2.148,5.225,2.148h0.073c2.034,0,3.768-0.716,5.2-2.148
			c1.448-1.448,2.173-3.19,2.173-5.225V28.69c0-2.034-0.725-3.768-2.173-5.2c-1.433-1.448-3.166-2.173-5.2-2.173h-0.073
			c-2.035,0-3.776,0.725-5.225,2.173c-1.433,1.433-2.148,3.166-2.148,5.2V32.157z"/>
		<path fill="#FFFFFF" d="M331.945,40.824c-0.163,0-0.31-0.065-0.439-0.195c-0.13-0.13-0.195-0.276-0.195-0.439V28.227
			c0-2.36,0.773-4.321,2.319-5.884c1.546-1.579,3.483-2.368,5.811-2.368h0.049c1.709,0,3.239,0.448,4.59,1.343
			c1.318,0.879,2.287,2.067,2.905,3.564c0.602-1.481,1.563-2.669,2.881-3.564c1.351-0.895,2.881-1.343,4.589-1.343h0.073
			c2.312,0,4.24,0.79,5.786,2.368c1.546,1.563,2.319,3.524,2.319,5.884v11.963c0,0.163-0.065,0.31-0.195,0.439
			c-0.114,0.13-0.261,0.195-0.439,0.195s-0.334-0.065-0.464-0.195c-0.13-0.13-0.195-0.276-0.195-0.439V28.227
			c0-1.985-0.651-3.646-1.953-4.98c-1.302-1.318-2.922-1.978-4.858-1.978h-0.073c-1.953,0-3.581,0.659-4.882,1.978
			c-1.302,1.335-1.953,2.995-1.953,4.98v11.963c0,0.163-0.065,0.31-0.195,0.439c-0.114,0.13-0.261,0.195-0.439,0.195
			c-0.179,0-0.334-0.065-0.464-0.195c-0.13-0.13-0.195-0.276-0.195-0.439V28.227c0-1.985-0.651-3.646-1.953-4.98
			c-1.302-1.318-2.93-1.978-4.883-1.978h-0.049c-1.953,0-3.581,0.659-4.883,1.978c-1.302,1.335-1.953,2.995-1.953,4.98v11.963
			c0,0.163-0.065,0.31-0.195,0.439C332.279,40.759,332.124,40.824,331.945,40.824z"/>
		<path fill="#FFFFFF" d="M372.63,30.717c-1.481,0-2.751-0.521-3.809-1.563c-1.042-1.058-1.563-2.327-1.563-3.809
			c0-1.481,0.521-2.742,1.563-3.784c1.058-1.058,2.327-1.587,3.809-1.587h5.542c1.48,0,2.75,0.529,3.809,1.587
			c0.13,0.114,0.195,0.261,0.195,0.439c0,0.179-0.065,0.334-0.195,0.464c-0.131,0.13-0.285,0.195-0.464,0.195
			c-0.18,0-0.334-0.065-0.464-0.195c-0.781-0.797-1.742-1.196-2.881-1.196h-5.542c-1.123,0-2.084,0.399-2.881,1.196
			c-0.798,0.798-1.196,1.758-1.196,2.881s0.398,2.083,1.196,2.881c0.797,0.798,1.758,1.196,2.881,1.196h5.225
			c1.563,0,2.905,0.562,4.028,1.685c1.106,1.107,1.66,2.45,1.66,4.028c0,1.563-0.554,2.905-1.66,4.028
			c-1.123,1.107-2.466,1.66-4.028,1.66h-6.079c-1.563,0-2.905-0.553-4.028-1.66c-0.114-0.13-0.171-0.285-0.171-0.464
			c0-0.179,0.057-0.333,0.171-0.464c0.13-0.13,0.284-0.195,0.464-0.195c0.179,0,0.333,0.065,0.464,0.195
			c0.862,0.863,1.896,1.294,3.101,1.294h6.079c1.204,0,2.237-0.431,3.101-1.294c0.862-0.862,1.294-1.896,1.294-3.101
			c0-1.221-0.432-2.262-1.294-3.125c-0.863-0.862-1.896-1.294-3.101-1.294H372.63z"/>
		<path fill="#FFFFFF" d="M405.697,20.512c0.13,0.114,0.203,0.261,0.22,0.439c0.016,0.179-0.041,0.334-0.171,0.464l-1.831,2.075
			c1.172,1.563,1.758,3.296,1.758,5.2v3.467c0,2.393-0.847,4.436-2.539,6.128c-1.693,1.693-3.735,2.539-6.128,2.539h-0.073
			c-2.36,0-4.387-0.83-6.079-2.49l-1.709,1.953c-0.114,0.146-0.261,0.22-0.439,0.22c-0.18,0.017-0.334-0.032-0.464-0.146
			c-0.146-0.114-0.22-0.26-0.22-0.439c-0.017-0.179,0.032-0.342,0.146-0.488l1.831-2.075c-1.156-1.546-1.733-3.279-1.733-5.2V28.69
			c0-2.376,0.846-4.411,2.539-6.104c1.692-1.709,3.735-2.563,6.128-2.563h0.073c2.344,0,4.361,0.83,6.055,2.49l1.733-1.953
			c0.113-0.13,0.26-0.203,0.439-0.22C405.412,20.325,405.566,20.382,405.697,20.512z M389.559,32.157
			c0,1.546,0.439,2.954,1.318,4.224l11.328-12.891c-1.433-1.448-3.166-2.173-5.2-2.173h-0.073c-2.035,0-3.776,0.725-5.225,2.173
			c-1.433,1.433-2.148,3.166-2.148,5.2V32.157z M404.378,28.69c0-1.53-0.439-2.93-1.318-4.199l-11.353,12.891
			c1.448,1.433,3.189,2.148,5.225,2.148h0.073c2.034,0,3.768-0.716,5.2-2.148c1.448-1.448,2.173-3.19,2.173-5.225V28.69z"/>
	</g>
	<g>
		<path fill="#FFFFFF" d="M450.79,204.942c-0.195,0-0.366-0.073-0.513-0.22s-0.22-0.317-0.22-0.513V175.23
			c0-0.211,0.073-0.382,0.22-0.513c0.146-0.146,0.317-0.22,0.513-0.22c0.211,0,0.391,0.073,0.537,0.22
			c0.13,0.13,0.195,0.301,0.195,0.513v18.335h4.175c2.408-0.098,4.435-1.033,6.079-2.808c1.644-1.79,2.425-3.898,2.344-6.323v-9.204
			c0-0.211,0.073-0.382,0.22-0.513c0.13-0.146,0.301-0.22,0.513-0.22c0.211,0,0.382,0.073,0.513,0.22
			c0.146,0.13,0.22,0.301,0.22,0.513v9.18c0.081,2.181-0.48,4.191-1.685,6.03c-1.172,1.774-2.751,3.06-4.736,3.857
			c1.985,0.814,3.564,2.116,4.736,3.906c1.204,1.823,1.766,3.833,1.685,6.03c0,0.195-0.073,0.358-0.22,0.488
			c-0.146,0.146-0.317,0.22-0.513,0.22h-0.024c-0.212-0.016-0.383-0.098-0.513-0.244c-0.146-0.146-0.212-0.325-0.195-0.537
			c0.098-2.425-0.684-4.524-2.344-6.299c-1.645-1.79-3.679-2.726-6.104-2.808h-4.15v9.155c0,0.195-0.065,0.366-0.195,0.513
			C451.18,204.869,451,204.942,450.79,204.942z"/>
		<path fill="#FFFFFF" d="M472.065,179.771c-0.407,0-0.757-0.146-1.05-0.439s-0.439-0.643-0.439-1.05
			c0-0.423,0.146-0.781,0.439-1.074s0.643-0.439,1.05-0.439c0.406,0,0.757,0.146,1.05,0.439s0.439,0.651,0.439,1.074
			c0,0.407-0.146,0.757-0.439,1.05S472.471,179.771,472.065,179.771z M472.065,184.117c-0.18,0-0.334,0.057-0.464,0.171
			c-0.114,0.13-0.171,0.285-0.171,0.464v19.556c0,0.179,0.057,0.326,0.171,0.439c0.13,0.13,0.284,0.195,0.464,0.195
			c0.179,0,0.333-0.065,0.464-0.195c0.13-0.114,0.195-0.26,0.195-0.439v-19.556c0-0.179-0.065-0.333-0.195-0.464
			C472.398,184.174,472.244,184.117,472.065,184.117z"/>
		<path fill="#FFFFFF" d="M485.381,204.894c-1.709-0.765-3.068-1.937-4.077-3.516c-1.025-1.563-1.538-3.279-1.538-5.151v-21.191
			c0-0.179,0.064-0.333,0.195-0.464c0.113-0.114,0.26-0.171,0.439-0.171c0.179,0,0.333,0.057,0.464,0.171
			c0.113,0.13,0.171,0.285,0.171,0.464v21.191c0,1.611,0.447,3.101,1.343,4.468c0.879,1.351,2.051,2.36,3.516,3.027
			c0.162,0.065,0.276,0.179,0.342,0.342c0.064,0.179,0.057,0.342-0.024,0.488c-0.098,0.261-0.293,0.391-0.586,0.391
			C485.543,204.942,485.462,204.926,485.381,204.894z"/>
		<path fill="#FFFFFF" d="M491.691,214.61c-0.18,0-0.326-0.065-0.439-0.195c-0.131-0.114-0.195-0.261-0.195-0.439v-21.24
			c0-2.376,0.838-4.402,2.515-6.079c1.676-1.676,3.702-2.515,6.079-2.515h0.073c2.376,0,4.402,0.838,6.079,2.515
			c1.676,1.677,2.515,3.703,2.515,6.079v3.418c0,2.376-0.839,4.403-2.515,6.079c-1.677,1.677-3.703,2.515-6.079,2.515h-0.073
			c-1.514,0-2.93-0.374-4.248-1.123c-1.27-0.732-2.295-1.725-3.076-2.979v13.33c0,0.179-0.058,0.325-0.171,0.439
			C492.024,214.545,491.87,214.61,491.691,214.61z M492.326,196.153c0,2.019,0.716,3.744,2.148,5.176
			c1.432,1.433,3.157,2.148,5.176,2.148h0.073c2.018,0,3.743-0.716,5.176-2.148c1.432-1.432,2.148-3.157,2.148-5.176v-3.418
			c0-2.018-0.717-3.743-2.148-5.176c-1.433-1.432-3.158-2.148-5.176-2.148h-0.073c-2.019,0-3.744,0.716-5.176,2.148
			c-1.433,1.433-2.148,3.158-2.148,5.176V196.153z"/>
		<path fill="#FFFFFF" d="M514.968,179.771c-0.407,0-0.757-0.146-1.05-0.439s-0.439-0.643-0.439-1.05
			c0-0.423,0.146-0.781,0.439-1.074s0.643-0.439,1.05-0.439c0.406,0,0.757,0.146,1.05,0.439s0.439,0.651,0.439,1.074
			c0,0.407-0.146,0.757-0.439,1.05S515.375,179.771,514.968,179.771z M514.968,184.117c-0.18,0-0.334,0.057-0.464,0.171
			c-0.114,0.13-0.171,0.285-0.171,0.464v19.556c0,0.179,0.057,0.326,0.171,0.439c0.13,0.13,0.284,0.195,0.464,0.195
			c0.179,0,0.333-0.065,0.464-0.195c0.13-0.114,0.195-0.26,0.195-0.439v-19.556c0-0.179-0.065-0.333-0.195-0.464
			C515.301,184.174,515.147,184.117,514.968,184.117z"/>
		<path fill="#FFFFFF" d="M526.869,194.835c-1.481,0-2.751-0.521-3.809-1.563c-1.042-1.058-1.563-2.327-1.563-3.809
			c0-1.481,0.521-2.742,1.563-3.784c1.058-1.058,2.327-1.587,3.809-1.587h5.542c1.48,0,2.75,0.529,3.809,1.587
			c0.13,0.114,0.195,0.261,0.195,0.439c0,0.179-0.065,0.334-0.195,0.464c-0.131,0.13-0.285,0.195-0.464,0.195
			c-0.18,0-0.334-0.065-0.464-0.195c-0.781-0.797-1.742-1.196-2.881-1.196h-5.542c-1.123,0-2.084,0.399-2.881,1.196
			c-0.798,0.798-1.196,1.758-1.196,2.881s0.398,2.083,1.196,2.881c0.797,0.798,1.758,1.196,2.881,1.196h5.225
			c1.563,0,2.905,0.562,4.028,1.685c1.106,1.107,1.66,2.45,1.66,4.028c0,1.563-0.554,2.905-1.66,4.028
			c-1.123,1.107-2.466,1.66-4.028,1.66h-6.079c-1.563,0-2.905-0.553-4.028-1.66c-0.114-0.13-0.171-0.285-0.171-0.464
			c0-0.179,0.057-0.333,0.171-0.464c0.13-0.13,0.284-0.195,0.464-0.195c0.179,0,0.333,0.065,0.464,0.195
			c0.862,0.863,1.896,1.294,3.101,1.294h6.079c1.204,0,2.237-0.431,3.101-1.294c0.862-0.862,1.294-1.896,1.294-3.101
			c0-1.221-0.432-2.262-1.294-3.125c-0.863-0.862-1.896-1.294-3.101-1.294H526.869z"/>
		<path fill="#FFFFFF" d="M539.086,214.61c-0.276,0-0.472-0.122-0.586-0.366c-0.179-0.391-0.073-0.676,0.317-0.854
			c1.465-0.667,2.637-1.677,3.516-3.027c0.879-1.351,1.318-2.832,1.318-4.443v-21.167c0-0.439,0.22-0.659,0.659-0.659
			c0.423,0,0.635,0.22,0.635,0.659v21.167c0,1.855-0.513,3.572-1.538,5.151c-1.01,1.563-2.368,2.726-4.077,3.491
			C539.25,214.594,539.168,214.61,539.086,214.61z M544.311,176.842c-0.407,0-0.757,0.146-1.05,0.439s-0.439,0.643-0.439,1.05
			c0,0.407,0.146,0.749,0.439,1.025c0.293,0.293,0.643,0.439,1.05,0.439c0.406,0,0.748-0.146,1.025-0.439
			c0.293-0.276,0.439-0.618,0.439-1.025c0-0.407-0.146-0.757-0.439-1.05C545.059,176.988,544.717,176.842,544.311,176.842z"/>
		<path fill="#FFFFFF" d="M560.435,204.942c-2.393,0-4.436-0.846-6.128-2.539c-1.693-1.692-2.539-3.735-2.539-6.128v-3.467
			c0-2.393,0.846-4.435,2.539-6.128c1.692-1.692,3.735-2.539,6.128-2.539h0.073c2.393,0,4.435,0.847,6.128,2.539
			c1.692,1.693,2.539,3.735,2.539,6.128v11.499c0,0.179-0.058,0.326-0.171,0.439c-0.131,0.13-0.285,0.195-0.464,0.195
			c-0.18,0-0.334-0.065-0.464-0.195c-0.131-0.114-0.195-0.26-0.195-0.439v-3.516c-0.766,1.27-1.791,2.271-3.076,3.003
			c-1.335,0.765-2.768,1.147-4.297,1.147H560.435z M553.062,196.275c0,2.035,0.716,3.776,2.148,5.225
			c1.448,1.433,3.189,2.148,5.225,2.148h0.073c2.034,0,3.775-0.716,5.225-2.148c1.432-1.448,2.148-3.19,2.148-5.225v-3.467
			c0-2.034-0.717-3.776-2.148-5.225c-1.449-1.432-3.19-2.148-5.225-2.148h-0.073c-2.035,0-3.776,0.716-5.225,2.148
			c-1.433,1.449-2.148,3.19-2.148,5.225V196.275z M555.674,176.012c-1.042,0-1.563,0.521-1.563,1.563
			c0,1.042,0.521,1.563,1.563,1.563c1.041,0,1.563-0.521,1.563-1.563C557.237,176.533,556.715,176.012,555.674,176.012z
			 M565.342,176.012c-1.025,0-1.538,0.521-1.538,1.563c0,1.042,0.513,1.563,1.538,1.563c1.041,0,1.563-0.521,1.563-1.563
			C566.905,176.533,566.383,176.012,565.342,176.012z"/>
		<path fill="#FFFFFF" d="M576.266,204.942c-0.163,0-0.31-0.065-0.439-0.195c-0.131-0.13-0.195-0.276-0.195-0.439v-11.523
			c0-2.393,0.846-4.435,2.539-6.128c1.709-1.709,3.76-2.563,6.152-2.563h1.538c0.179,0,0.333,0.065,0.464,0.195
			c0.13,0.13,0.195,0.285,0.195,0.464c0,0.179-0.065,0.334-0.195,0.464c-0.131,0.114-0.285,0.171-0.464,0.171h-1.538
			c-2.035,0-3.776,0.725-5.225,2.173c-1.449,1.449-2.173,3.19-2.173,5.225v11.523c0,0.163-0.065,0.31-0.195,0.439
			C576.599,204.877,576.445,204.942,576.266,204.942z"/>
		<path fill="#FFFFFF" d="M590.242,184.923c-0.065-0.163-0.065-0.325,0-0.488c0.081-0.163,0.203-0.285,0.366-0.366
			c0.162-0.065,0.325-0.057,0.488,0.024c0.162,0.065,0.284,0.179,0.366,0.342l7.422,18.14l7.397-18.14
			c0.081-0.163,0.203-0.276,0.366-0.342c0.162-0.081,0.325-0.089,0.488-0.024c0.162,0.082,0.284,0.204,0.366,0.366
			c0.064,0.163,0.064,0.326,0,0.488l-8.032,19.604c-0.114,0.277-0.31,0.415-0.586,0.415c-0.293,0-0.497-0.138-0.61-0.415
			L590.242,184.923z"/>
		<path fill="#FFFFFF" d="M614.007,179.771c-0.407,0-0.757-0.146-1.05-0.439s-0.439-0.643-0.439-1.05
			c0-0.423,0.146-0.781,0.439-1.074s0.643-0.439,1.05-0.439c0.406,0,0.757,0.146,1.05,0.439s0.439,0.651,0.439,1.074
			c0,0.407-0.146,0.757-0.439,1.05S614.414,179.771,614.007,179.771z M614.007,184.117c-0.18,0-0.334,0.057-0.464,0.171
			c-0.114,0.13-0.171,0.285-0.171,0.464v19.556c0,0.179,0.057,0.326,0.171,0.439c0.13,0.13,0.284,0.195,0.464,0.195
			c0.179,0,0.333-0.065,0.464-0.195c0.13-0.114,0.195-0.26,0.195-0.439v-19.556c0-0.179-0.065-0.333-0.195-0.464
			C614.34,184.174,614.186,184.117,614.007,184.117z"/>
	</g>
	<g>
		<path fill="#FFFFFF" d="M616.129,337.827c-0.195,0-0.366-0.073-0.513-0.22s-0.22-0.317-0.22-0.513v-29.102
			c0-0.211,0.073-0.391,0.22-0.537s0.317-0.22,0.513-0.22h15.454c0.195,0,0.366,0.073,0.513,0.22s0.22,0.326,0.22,0.537
			c0,0.195-0.073,0.366-0.22,0.513s-0.317,0.22-0.513,0.22h-14.697v17.676h11.646c0.211,0,0.391,0.065,0.537,0.195
			c0.146,0.146,0.22,0.326,0.22,0.537c0,0.212-0.073,0.383-0.22,0.513c-0.146,0.146-0.326,0.22-0.537,0.22h-11.646v8.472h14.697
			c0.195,0,0.366,0.073,0.513,0.22s0.22,0.317,0.22,0.513c0,0.212-0.073,0.391-0.22,0.537s-0.317,0.22-0.513,0.22h-15.332
			C616.218,337.827,616.178,337.827,616.129,337.827z"/>
		<path fill="#FFFFFF" d="M638.845,337.827c-0.163,0-0.31-0.064-0.439-0.195c-0.131-0.113-0.195-0.26-0.195-0.439v-11.523
			c0-2.393,0.846-4.435,2.539-6.128c1.709-1.692,3.76-2.539,6.152-2.539h0.073c2.393,0,4.435,0.847,6.128,2.539
			c1.692,1.693,2.539,3.735,2.539,6.128v11.523c0,0.18-0.058,0.326-0.171,0.439c-0.131,0.131-0.285,0.195-0.464,0.195
			c-0.18,0-0.334-0.064-0.464-0.195c-0.114-0.113-0.171-0.26-0.171-0.439v-11.523c0-2.034-0.725-3.775-2.173-5.225
			c-1.449-1.448-3.19-2.173-5.225-2.173h-0.073c-2.051,0-3.793,0.725-5.225,2.173c-1.449,1.449-2.173,3.19-2.173,5.225v11.523
			c0,0.163-0.065,0.31-0.195,0.439C639.178,337.763,639.024,337.827,638.845,337.827z"/>
		<path fill="#FFFFFF" d="M669.471,337.827c-2.393,0-4.436-0.846-6.128-2.539c-1.693-1.692-2.539-3.735-2.539-6.128v-3.467
			c0-2.376,0.846-4.41,2.539-6.104c1.692-1.692,3.735-2.539,6.128-2.539h0.073c2.393,0,4.435,0.847,6.128,2.539
			c1.692,1.693,2.539,3.728,2.539,6.104v3.467c0,2.393-0.847,4.436-2.539,6.128c-1.693,1.693-3.735,2.539-6.128,2.539H669.471z
			 M662.098,329.16c0,2.035,0.716,3.776,2.148,5.225c1.448,1.433,3.189,2.148,5.225,2.148h0.073c2.034,0,3.768-0.716,5.2-2.148
			c1.448-1.448,2.173-3.189,2.173-5.225v-3.467c0-2.034-0.725-3.768-2.173-5.2c-1.433-1.448-3.166-2.173-5.2-2.173h-0.073
			c-2.035,0-3.776,0.725-5.225,2.173c-1.433,1.433-2.148,3.166-2.148,5.2V329.16z"/>
		<path fill="#FFFFFF" d="M684.814,337.827c-0.163,0-0.31-0.064-0.439-0.195c-0.131-0.113-0.195-0.26-0.195-0.439v-11.523
			c0-2.393,0.846-4.435,2.539-6.128c1.709-1.692,3.76-2.539,6.152-2.539h0.073c2.393,0,4.435,0.847,6.128,2.539
			c1.692,1.693,2.539,3.735,2.539,6.128v11.523c0,0.18-0.058,0.326-0.171,0.439c-0.131,0.131-0.285,0.195-0.464,0.195
			c-0.18,0-0.334-0.064-0.464-0.195c-0.114-0.113-0.171-0.26-0.171-0.439v-11.523c0-2.034-0.725-3.775-2.173-5.225
			c-1.449-1.448-3.19-2.173-5.225-2.173h-0.073c-2.051,0-3.793,0.725-5.225,2.173c-1.449,1.449-2.173,3.19-2.173,5.225v11.523
			c0,0.163-0.065,0.31-0.195,0.439C685.147,337.763,684.993,337.827,684.814,337.827z"/>
		<path fill="#FFFFFF" d="M715.074,337.827c-2.36,0-4.387-0.838-6.079-2.515c-1.677-1.692-2.515-3.719-2.515-6.079v-21.265
			c0-0.179,0.064-0.333,0.195-0.464c0.113-0.13,0.26-0.195,0.439-0.195c0.179,0,0.333,0.065,0.464,0.195
			c0.113,0.131,0.171,0.285,0.171,0.464v9.131h5.811c0.357,0,0.537,0.18,0.537,0.537c0,0.358-0.18,0.537-0.537,0.537h-5.811v11.06
			c0,2.019,0.716,3.744,2.148,5.176c1.432,1.433,3.157,2.148,5.176,2.148h1.538c0.179,0,0.333,0.058,0.464,0.171
			c0.113,0.131,0.171,0.285,0.171,0.464c0,0.18-0.058,0.326-0.171,0.439c-0.131,0.131-0.285,0.195-0.464,0.195H715.074z"/>
		<path fill="#FFFFFF" d="M729.635,337.827c-2.393,0-4.436-0.854-6.128-2.563c-1.709-1.692-2.563-3.735-2.563-6.128v-3.491
			c0-2.474,0.772-4.541,2.319-6.201c1.546-1.66,3.475-2.49,5.786-2.49h0.073c2.311,0,4.239,0.83,5.786,2.49
			c1.546,1.66,2.319,3.728,2.319,6.201v1.733c0,0.18-0.065,0.334-0.195,0.464c-0.131,0.131-0.285,0.195-0.464,0.195h-14.331v1.099
			c0,2.035,0.724,3.776,2.173,5.225c1.448,1.449,3.189,2.173,5.225,2.173h0.098c2.474,0,4.451-1.001,5.933-3.003
			c0.113-0.146,0.26-0.235,0.439-0.269c0.179-0.016,0.333,0.024,0.464,0.122c0.146,0.114,0.235,0.261,0.269,0.439
			c0.016,0.18-0.024,0.334-0.122,0.464c-0.83,1.123-1.855,1.994-3.076,2.612c-1.221,0.619-2.523,0.928-3.906,0.928H729.635z
			 M722.238,326.743h13.696v-1.099c0-2.148-0.644-3.922-1.929-5.322c-1.286-1.383-2.914-2.075-4.883-2.075h-0.073
			c-1.97,0-3.598,0.692-4.883,2.075c-1.286,1.4-1.929,3.174-1.929,5.322V326.743z"/>
		<path fill="#FFFFFF" d="M743.977,337.827c-0.18,0-0.326-0.064-0.439-0.195c-0.131-0.113-0.195-0.26-0.195-0.439v-29.199
			c0-0.179,0.064-0.325,0.195-0.439c0.113-0.13,0.26-0.195,0.439-0.195c0.179,0,0.333,0.065,0.464,0.195
			c0.113,0.114,0.171,0.261,0.171,0.439v18.652h1.099c0.374-0.016,0.708-0.04,1.001-0.073c1.871-0.276,3.458-1.09,4.761-2.441
			c1.302-1.351,2.051-2.97,2.246-4.858c0.016-0.162,0.089-0.301,0.22-0.415c0.146-0.113,0.301-0.162,0.464-0.146
			c0.179,0.017,0.325,0.09,0.439,0.22c0.113,0.146,0.162,0.302,0.146,0.464c-0.18,1.742-0.781,3.305-1.807,4.688
			c-1.01,1.367-2.295,2.393-3.857,3.076c1.888,0.635,3.418,1.767,4.59,3.394c1.204,1.645,1.807,3.491,1.807,5.542
			c0,0.358-0.024,0.749-0.073,1.172c-0.049,0.375-0.261,0.562-0.635,0.562c-0.033,0-0.058,0-0.073,0
			c-0.18-0.032-0.326-0.113-0.439-0.244c-0.098-0.146-0.139-0.301-0.122-0.464c0.049-0.374,0.073-0.716,0.073-1.025
			c0-2.246-0.798-4.175-2.393-5.786c-1.611-1.595-3.54-2.393-5.786-2.393h-1.66v9.277c0,0.18-0.058,0.326-0.171,0.439
			C744.31,337.763,744.156,337.827,743.977,337.827z"/>
		<path fill="#FFFFFF" d="M762.274,312.656c-0.407,0-0.757-0.146-1.05-0.439s-0.439-0.643-0.439-1.05
			c0-0.423,0.146-0.781,0.439-1.074s0.643-0.439,1.05-0.439c0.406,0,0.757,0.146,1.05,0.439s0.439,0.651,0.439,1.074
			c0,0.407-0.146,0.757-0.439,1.05S762.68,312.656,762.274,312.656z M762.274,317.002c-0.18,0-0.334,0.058-0.464,0.171
			c-0.114,0.131-0.171,0.285-0.171,0.464v19.556c0,0.18,0.057,0.326,0.171,0.439c0.13,0.131,0.284,0.195,0.464,0.195
			c0.179,0,0.333-0.064,0.464-0.195c0.13-0.113,0.195-0.26,0.195-0.439v-19.556c0-0.179-0.065-0.333-0.195-0.464
			C762.607,317.06,762.453,317.002,762.274,317.002z"/>
		<path fill="#FFFFFF" d="M778.325,337.827c-2.409,0-4.46-0.854-6.152-2.563c-1.709-1.692-2.563-3.743-2.563-6.152v-3.467
			c0-2.408,0.854-4.459,2.563-6.152c1.692-1.709,3.743-2.563,6.152-2.563h0.073c2.393,0,4.443,0.854,6.152,2.563
			c1.709,1.693,2.563,3.744,2.563,6.152v3.467c0,2.409-0.854,4.46-2.563,6.152c-1.709,1.709-3.76,2.563-6.152,2.563H778.325z
			 M770.903,329.111c0,2.051,0.724,3.801,2.173,5.249c1.448,1.449,3.198,2.173,5.249,2.173h0.073c2.034,0,3.784-0.724,5.249-2.173
			c1.448-1.448,2.173-3.198,2.173-5.249v-3.467c0-2.051-0.725-3.8-2.173-5.249c-1.465-1.448-3.215-2.173-5.249-2.173h-0.073
			c-2.051,0-3.801,0.725-5.249,2.173c-1.449,1.449-2.173,3.198-2.173,5.249V329.111z M773.686,308.896
			c-1.025,0-1.538,0.521-1.538,1.563c0,1.042,0.513,1.563,1.538,1.563c1.041,0,1.563-0.521,1.563-1.563
			C775.249,309.418,774.727,308.896,773.686,308.896z M783.354,308.896c-1.025,0-1.538,0.521-1.538,1.563
			c0,1.042,0.513,1.563,1.538,1.563c1.058,0,1.587-0.521,1.587-1.563C784.941,309.418,784.412,308.896,783.354,308.896z"/>
	</g>
</g>
</svg>
