<?xml version="1.0" encoding="utf-8"?>
<!-- Generator: Adobe Illustrator 16.0.0, SVG Export Plug-In . SVG Version: 6.00 Build 0)  -->
<!DOCTYPE svg PUBLIC "-//W3C//DTD SVG 1.1//EN" "http://www.w3.org/Graphics/SVG/1.1/DTD/svg11.dtd">
<svg version="1.1" id="Calque_1" xmlns="http://www.w3.org/2000/svg" xmlns:xlink="http://www.w3.org/1999/xlink" x="0px" y="0px"
	 width="704.667px" height="600px" viewBox="0 0 704.667 600" enable-background="new 0 0 704.667 600" xml:space="preserve">
<g id="Calque_2">
	<g>
		<g>
			<path fill="none" stroke="#FFFFFF" stroke-width="4" stroke-miterlimit="10" d="M370.864,566.838c-93.5-7.834-172-90.5-172-90.5"
				/>
			<path fill="none" stroke="#FFFFFF" stroke-width="4" stroke-miterlimit="10" d="M198.864,476.338c0,0-100.538-164.699-95.205-219
				l0,0C147.8,328.67,247.862,362.896,397.362,397.23"/>
		</g>
		<path fill="none" stroke="#FFFFFF" stroke-width="4" stroke-miterlimit="10" d="M397.362,397.23
			c23.5-20.326-18.498-132.393-18.498-132.393s-5.5-145.333,94-193"/>
	</g>
</g>
<g id="Calque_4">
	<circle fill="#FFFFFF" cx="370.864" cy="566.838" r="10.5"/>
	<circle fill="#FFFFFF" cx="198.864" cy="476.338" r="10.5"/>
	<circle fill="#FFFFFF" cx="103.454" cy="260.17" r="10.5"/>
	<circle fill="#FFFFFF" cx="397.362" cy="397.23" r="10.5"/>
	<circle fill="#FFFFFF" cx="378.809" cy="267.837" r="10.5"/>
	<circle fill="#FFFFFF" cx="472.864" cy="71.837" r="10.5"/>
</g>
<g id="Calque_5">
	<rect x="8.531" y="200.618" fill="none" width="136.423" height="49.053"/>
	<g enable-background="new    ">
		<path fill="#FFFFFF" d="M12.398,229.89c-0.188,0-0.352-0.07-0.492-0.211s-0.211-0.305-0.211-0.492v-27.82
			c0-0.188,0.07-0.352,0.211-0.492s0.305-0.211,0.492-0.211h7.641c2.719,0,5.047,0.961,6.984,2.883
			c1.922,1.938,2.883,4.258,2.883,6.961c0,2.719-0.961,5.047-2.883,6.984c-1.938,1.922-4.266,2.883-6.984,2.883h-6.938v8.813
			c0,0.188-0.063,0.352-0.188,0.492C12.773,229.82,12.602,229.89,12.398,229.89z M13.102,218.968h6.938
			c2.328,0,4.32-0.828,5.977-2.484s2.484-3.648,2.484-5.977c0-2.313-0.828-4.297-2.484-5.953s-3.648-2.484-5.977-2.484h-6.938
			V218.968z"/>
		<path fill="#FFFFFF" d="M34.477,229.89c-0.156,0-0.297-0.063-0.422-0.188s-0.188-0.266-0.188-0.422v-11.063
			c0-2.297,0.813-4.258,2.438-5.883c1.641-1.641,3.609-2.461,5.906-2.461h1.477c0.172,0,0.32,0.063,0.445,0.188
			s0.188,0.273,0.188,0.445s-0.063,0.32-0.188,0.445c-0.125,0.109-0.273,0.164-0.445,0.164h-1.477c-1.953,0-3.625,0.695-5.016,2.086
			s-2.086,3.063-2.086,5.016v11.063c0,0.156-0.063,0.297-0.188,0.422S34.648,229.89,34.477,229.89z"/>
		<path fill="#FFFFFF" d="M55.195,229.89c-2.297,0-4.258-0.813-5.883-2.438c-1.641-1.641-2.461-3.609-2.461-5.906v-3.352
			c0-2.297,0.82-4.266,2.461-5.906c1.625-1.625,3.586-2.438,5.883-2.438h0.094c2.297,0,4.258,0.813,5.883,2.438
			c1.641,1.641,2.461,3.609,2.461,5.906v11.086c0,0.156-0.063,0.297-0.188,0.422S63.172,229.89,63,229.89s-0.313-0.063-0.422-0.188
			c-0.125-0.125-0.188-0.266-0.188-0.422v-3.375c-0.75,1.219-1.742,2.18-2.977,2.883c-1.281,0.734-2.656,1.102-4.125,1.102H55.195z
			 M48.094,221.546c0,1.953,0.695,3.625,2.086,5.016s3.063,2.086,5.016,2.086h0.094c1.953,0,3.625-0.695,5.016-2.086
			s2.086-3.063,2.086-5.016v-3.352c0-1.953-0.695-3.625-2.086-5.016s-3.063-2.086-5.016-2.086h-0.094
			c-1.953,0-3.625,0.695-5.016,2.086s-2.086,3.063-2.086,5.016V221.546z"/>
		<path fill="#FFFFFF" d="M75.07,229.703c-2.266,0-4.211-0.813-5.836-2.438c-1.609-1.609-2.414-3.555-2.414-5.836v-3.281
			c0-2.281,0.805-4.227,2.414-5.836c1.625-1.625,3.57-2.438,5.836-2.438h0.07c2.281,0,4.227,0.813,5.836,2.438
			c1.625,1.609,2.438,3.555,2.438,5.836v12.773c0,2.266-0.813,4.211-2.438,5.836c-1.609,1.609-3.555,2.414-5.836,2.414h-0.07
			c-1.594,0-3.055-0.414-4.383-1.242s-2.336-1.961-3.023-3.398c-0.078-0.156-0.094-0.313-0.047-0.469
			c0.063-0.156,0.172-0.273,0.328-0.352c0.141-0.078,0.297-0.086,0.469-0.023c0.156,0.047,0.273,0.148,0.352,0.305
			c0.594,1.219,1.453,2.18,2.578,2.883c1.141,0.719,2.383,1.078,3.727,1.078h0.07c1.938,0,3.594-0.688,4.969-2.063
			s2.063-3.031,2.063-4.969v-5.18c-0.734,1.203-1.711,2.156-2.93,2.859c-1.266,0.734-2.633,1.102-4.102,1.102H75.07z
			 M68.039,221.429c0,1.938,0.688,3.594,2.063,4.969s3.031,2.063,4.969,2.063h0.07c1.953,0,3.609-0.688,4.969-2.063
			c1.375-1.375,2.063-3.031,2.063-4.969v-3.281c0-1.953-0.688-3.609-2.063-4.969c-1.359-1.375-3.016-2.063-4.969-2.063h-0.07
			c-1.938,0-3.594,0.688-4.969,2.063s-2.063,3.031-2.063,4.969V221.429z"/>
		<path fill="#FFFFFF" d="M102.469,209.898c0.172,0,0.32,0.055,0.445,0.164c0.109,0.125,0.164,0.273,0.164,0.445v11.039
			c0,2.297-0.813,4.266-2.438,5.906c-1.625,1.625-3.586,2.438-5.883,2.438h-0.07c-2.297,0-4.266-0.813-5.906-2.438
			c-1.625-1.641-2.438-3.609-2.438-5.906v-11.039c0-0.172,0.063-0.32,0.188-0.445c0.109-0.109,0.25-0.164,0.422-0.164
			s0.32,0.055,0.445,0.164c0.125,0.125,0.188,0.273,0.188,0.445v11.039c0,1.969,0.695,3.641,2.086,5.016
			c1.375,1.391,3.047,2.086,5.016,2.086h0.07c1.953,0,3.625-0.695,5.016-2.086c1.391-1.375,2.086-3.047,2.086-5.016v-11.039
			c0-0.172,0.055-0.32,0.164-0.445C102.148,209.953,102.297,209.898,102.469,209.898z"/>
		<path fill="#FFFFFF" d="M114.633,229.89c-2.297,0-4.258-0.82-5.883-2.461c-1.641-1.625-2.461-3.586-2.461-5.883v-3.352
			c0-2.375,0.742-4.359,2.227-5.953s3.336-2.391,5.555-2.391h0.07c2.219,0,4.07,0.797,5.555,2.391s2.227,3.578,2.227,5.953v1.664
			c0,0.172-0.063,0.32-0.188,0.445s-0.273,0.188-0.445,0.188h-13.758v1.055c0,1.953,0.695,3.625,2.086,5.016
			s3.063,2.086,5.016,2.086h0.094c2.375,0,4.273-0.961,5.695-2.883c0.109-0.141,0.25-0.227,0.422-0.258
			c0.172-0.016,0.32,0.023,0.445,0.117c0.141,0.109,0.227,0.25,0.258,0.422c0.016,0.172-0.023,0.32-0.117,0.445
			c-0.797,1.078-1.781,1.914-2.953,2.508s-2.422,0.891-3.75,0.891H114.633z M107.531,219.25h13.148v-1.055
			c0-2.063-0.617-3.766-1.852-5.109c-1.234-1.328-2.797-1.992-4.688-1.992h-0.07c-1.891,0-3.453,0.664-4.688,1.992
			c-1.234,1.344-1.852,3.047-1.852,5.109V219.25z"/>
	</g>
	<rect x="86.531" y="497.061" fill="none" width="136.422" height="49.057"/>
	<g enable-background="new    ">
		<path fill="#FFFFFF" d="M87.773,498.092c-0.063-0.188-0.047-0.367,0.047-0.539c0.078-0.172,0.211-0.289,0.398-0.352
			s0.367-0.047,0.539,0.047c0.172,0.078,0.289,0.211,0.352,0.398l8.508,25.734l8.531-25.734c0.047-0.188,0.164-0.32,0.352-0.398
			c0.172-0.094,0.352-0.109,0.539-0.047s0.32,0.18,0.398,0.352c0.094,0.172,0.109,0.352,0.047,0.539l-9.188,27.75
			c-0.109,0.328-0.336,0.492-0.68,0.492c-0.328,0-0.547-0.164-0.656-0.492L87.773,498.092z"/>
		<path fill="#FFFFFF" d="M111.234,502.17c-0.391,0-0.727-0.141-1.008-0.422s-0.422-0.617-0.422-1.008
			c0-0.406,0.141-0.75,0.422-1.031s0.617-0.422,1.008-0.422s0.727,0.141,1.008,0.422s0.422,0.625,0.422,1.031
			c0,0.391-0.141,0.727-0.422,1.008S111.625,502.17,111.234,502.17z M111.234,506.342c-0.172,0-0.32,0.055-0.445,0.164
			c-0.109,0.125-0.164,0.273-0.164,0.445v18.773c0,0.172,0.055,0.313,0.164,0.422c0.125,0.125,0.273,0.188,0.445,0.188
			s0.32-0.063,0.445-0.188c0.125-0.109,0.188-0.25,0.188-0.422v-18.773c0-0.172-0.063-0.32-0.188-0.445
			C111.555,506.396,111.406,506.342,111.234,506.342z"/>
		<path fill="#FFFFFF" d="M124.617,526.334c-2.297,0-4.258-0.82-5.883-2.461c-1.641-1.625-2.461-3.586-2.461-5.883v-3.352
			c0-2.375,0.742-4.359,2.227-5.953s3.336-2.391,5.555-2.391h0.07c2.219,0,4.07,0.797,5.555,2.391s2.227,3.578,2.227,5.953v1.664
			c0,0.172-0.063,0.32-0.188,0.445s-0.273,0.188-0.445,0.188h-13.758v1.055c0,1.953,0.695,3.625,2.086,5.016
			s3.063,2.086,5.016,2.086h0.094c2.375,0,4.273-0.961,5.695-2.883c0.109-0.141,0.25-0.227,0.422-0.258
			c0.172-0.016,0.32,0.023,0.445,0.117c0.141,0.109,0.227,0.25,0.258,0.422c0.016,0.172-0.023,0.32-0.117,0.445
			c-0.797,1.078-1.781,1.914-2.953,2.508s-2.422,0.891-3.75,0.891H124.617z M117.516,515.693h13.148v-1.055
			c0-2.063-0.617-3.766-1.852-5.109c-1.234-1.328-2.797-1.992-4.688-1.992h-0.07c-1.891,0-3.453,0.664-4.688,1.992
			c-1.234,1.344-1.852,3.047-1.852,5.109V515.693z"/>
		<path fill="#FFFFFF" d="M136.828,526.334c-0.156,0-0.297-0.063-0.422-0.188c-0.125-0.109-0.188-0.25-0.188-0.422v-11.063
			c0-2.297,0.813-4.258,2.438-5.883c1.641-1.625,3.609-2.438,5.906-2.438h0.07c2.297,0,4.258,0.813,5.883,2.438
			c1.625,1.625,2.438,3.586,2.438,5.883v11.063c0,0.172-0.055,0.313-0.164,0.422c-0.125,0.125-0.273,0.188-0.445,0.188
			s-0.32-0.063-0.445-0.188c-0.109-0.109-0.164-0.25-0.164-0.422v-11.063c0-1.953-0.696-3.625-2.086-5.016s-3.063-2.086-5.016-2.086
			h-0.07c-1.969,0-3.641,0.695-5.016,2.086c-1.391,1.391-2.086,3.063-2.086,5.016v11.063c0,0.156-0.063,0.297-0.188,0.422
			S137,526.334,136.828,526.334z"/>
		<path fill="#FFFFFF" d="M158.86,526.334c-0.156,0-0.297-0.063-0.422-0.188c-0.125-0.109-0.188-0.25-0.188-0.422v-11.063
			c0-2.297,0.813-4.258,2.438-5.883c1.641-1.625,3.609-2.438,5.906-2.438h0.07c2.297,0,4.258,0.813,5.883,2.438
			s2.438,3.586,2.438,5.883v11.063c0,0.172-0.055,0.313-0.164,0.422c-0.125,0.125-0.273,0.188-0.445,0.188s-0.32-0.063-0.445-0.188
			c-0.109-0.109-0.164-0.25-0.164-0.422v-11.063c0-1.953-0.695-3.625-2.086-5.016s-3.063-2.086-5.016-2.086h-0.07
			c-1.969,0-3.641,0.695-5.016,2.086c-1.391,1.391-2.086,3.063-2.086,5.016v11.063c0,0.156-0.063,0.297-0.188,0.422
			S159.032,526.334,158.86,526.334z"/>
		<path fill="#FFFFFF" d="M187.102,526.334c-2.297,0-4.258-0.813-5.883-2.438c-1.641-1.641-2.461-3.609-2.461-5.906v-3.352
			c0-2.297,0.82-4.266,2.461-5.906c1.625-1.625,3.586-2.438,5.883-2.438h0.094c2.297,0,4.258,0.813,5.883,2.438
			c1.641,1.641,2.461,3.609,2.461,5.906v11.086c0,0.156-0.063,0.297-0.188,0.422s-0.273,0.188-0.445,0.188s-0.313-0.063-0.422-0.188
			c-0.125-0.125-0.188-0.266-0.188-0.422v-3.375c-0.75,1.219-1.742,2.18-2.977,2.883c-1.281,0.734-2.656,1.102-4.125,1.102H187.102z
			 M180,517.99c0,1.953,0.695,3.625,2.086,5.016s3.063,2.086,5.016,2.086h0.094c1.953,0,3.625-0.695,5.016-2.086
			s2.086-3.063,2.086-5.016v-3.352c0-1.953-0.695-3.625-2.086-5.016s-3.063-2.086-5.016-2.086h-0.094
			c-1.953,0-3.625,0.695-5.016,2.086S180,512.686,180,514.639V517.99z"/>
	</g>
	<rect x="397.864" y="550.172" fill="none" width="184.668" height="45.332"/>
	<g enable-background="new    ">
		<path fill="#FFFFFF" d="M402.27,580.172c-0.375,0-0.703-0.133-0.984-0.398c-0.266-0.281-0.398-0.609-0.398-0.984v-27.234
			c0-0.375,0.133-0.695,0.398-0.961c0.281-0.281,0.609-0.422,0.984-0.422h6.703c2.844,0,5.273,1.016,7.289,3.047
			c2.031,2.016,3.047,4.445,3.047,7.289c0,3.25-1.266,5.906-3.797,7.969c1.125,0.469,2.031,1.203,2.719,2.203
			c0.719,1.031,1.078,2.172,1.078,3.422c0,1.672-0.594,3.102-1.781,4.289s-2.617,1.781-4.289,1.781H402.27z M403.653,568.031h5.32
			c2.078,0,3.859-0.734,5.344-2.203c1.469-1.469,2.203-3.242,2.203-5.32s-0.734-3.859-2.203-5.344
			c-1.484-1.469-3.266-2.203-5.344-2.203h-5.32V568.031z M403.653,577.406h9.586c0.906,0,1.68-0.328,2.32-0.984
			c0.641-0.641,0.961-1.414,0.961-2.32s-0.32-1.68-0.961-2.32s-1.414-0.961-2.32-0.961h-9.586V577.406z"/>
		<path fill="#FFFFFF" d="M438.786,559.383c0.344,0,0.633,0.117,0.867,0.352s0.352,0.523,0.352,0.867v10.805
			c0,2.422-0.859,4.484-2.578,6.188c-1.703,1.719-3.766,2.578-6.188,2.578h-0.07c-2.422,0-4.484-0.859-6.188-2.578
			c-1.719-1.703-2.578-3.766-2.578-6.188v-10.805c0-0.344,0.117-0.633,0.352-0.867s0.523-0.352,0.867-0.352
			c0.328,0,0.609,0.117,0.844,0.352c0.25,0.234,0.375,0.523,0.375,0.867v10.805c0,1.75,0.617,3.242,1.852,4.477
			s2.727,1.852,4.477,1.852h0.07c1.75,0,3.242-0.617,4.477-1.852s1.852-2.727,1.852-4.477v-10.805c0-0.344,0.125-0.633,0.375-0.867
			C438.176,559.5,438.458,559.383,438.786,559.383z"/>
		<path fill="#FFFFFF" d="M459.622,550.172c0.328,0,0.609,0.117,0.844,0.352s0.352,0.523,0.352,0.867v20.063
			c0,2.406-0.852,4.461-2.555,6.164s-3.758,2.555-6.164,2.555h-0.07c-2.406,0-4.461-0.852-6.164-2.555s-2.555-3.758-2.555-6.164
			v-3.234c0-2.406,0.852-4.461,2.555-6.164s3.758-2.555,6.164-2.555h0.07c2.484,0,4.586,0.898,6.305,2.695v-10.805
			c0-0.344,0.117-0.633,0.352-0.867S459.278,550.172,459.622,550.172z M458.403,568.219c0-1.75-0.617-3.242-1.852-4.477
			c-1.234-1.219-2.719-1.828-4.453-1.828h-0.07c-1.734,0-3.219,0.609-4.453,1.828c-1.234,1.234-1.852,2.727-1.852,4.477v3.234
			c0,1.734,0.617,3.219,1.852,4.453s2.719,1.852,4.453,1.852h0.07c1.734,0,3.219-0.617,4.453-1.852s1.852-2.719,1.852-4.453V568.219
			z"/>
		<path fill="#FFFFFF" d="M473.848,580.172c-2.438,0-4.516-0.867-6.234-2.602c-1.734-1.719-2.602-3.797-2.602-6.234v-3.281
			c0-2.438,0.867-4.523,2.602-6.258c1.719-1.719,3.797-2.578,6.234-2.578h0.07c2.438,0,4.523,0.859,6.258,2.578
			c1.719,1.734,2.578,3.82,2.578,6.258v10.898c0,0.328-0.117,0.617-0.352,0.867c-0.25,0.234-0.539,0.352-0.867,0.352
			c-0.344,0-0.633-0.117-0.867-0.352c-0.234-0.25-0.352-0.539-0.352-0.867v-1.523c-1.75,1.828-3.883,2.742-6.398,2.742H473.848z
			 M467.45,571.336c0,1.766,0.625,3.273,1.875,4.523s2.758,1.875,4.523,1.875h0.07c1.766,0,3.273-0.625,4.523-1.875
			s1.875-2.758,1.875-4.523v-3.281c0-1.766-0.625-3.273-1.875-4.523s-2.758-1.875-4.523-1.875h-0.07
			c-1.766,0-3.273,0.625-4.523,1.875s-1.875,2.758-1.875,4.523V571.336z"/>
		<path fill="#FFFFFF" d="M488.356,589.266c-0.344,0-0.633-0.117-0.867-0.352s-0.352-0.523-0.352-0.867v-20.18
			c0-2.422,0.859-4.484,2.578-6.188c1.703-1.719,3.766-2.578,6.188-2.578h0.07c2.422,0,4.492,0.859,6.211,2.578
			c1.703,1.703,2.555,3.766,2.555,6.188v3.258c0,2.422-0.852,4.492-2.555,6.211c-1.719,1.703-3.789,2.555-6.211,2.555h-0.07
			c-2.5,0-4.609-0.906-6.328-2.719v10.875c0,0.344-0.125,0.633-0.375,0.867C488.965,589.148,488.684,589.266,488.356,589.266z
			 M489.575,571.125c0,1.75,0.617,3.242,1.852,4.477c1.234,1.25,2.727,1.875,4.477,1.875h0.07c1.75,0,3.242-0.625,4.477-1.875
			c1.25-1.234,1.875-2.727,1.875-4.477v-3.258c0-1.75-0.625-3.242-1.875-4.477c-1.234-1.234-2.727-1.852-4.477-1.852h-0.07
			c-1.75,0-3.242,0.617-4.477,1.852s-1.852,2.727-1.852,4.477V571.125z"/>
		<path fill="#FFFFFF" d="M515.52,580.172c-2.438,0-4.516-0.867-6.234-2.602c-1.734-1.719-2.602-3.797-2.602-6.234v-3.305
			c0-2.516,0.789-4.617,2.367-6.305s3.547-2.531,5.906-2.531h0.07c2.359,0,4.328,0.844,5.906,2.531s2.367,3.789,2.367,6.305v1.664
			c0,0.328-0.117,0.609-0.352,0.844c-0.234,0.25-0.523,0.375-0.867,0.375h-12.961v0.422c0,1.766,0.625,3.273,1.875,4.523
			s2.758,1.875,4.523,1.875h0.07c2.141,0,3.852-0.867,5.133-2.602c0.203-0.281,0.477-0.445,0.82-0.492
			c0.328-0.047,0.633,0.031,0.914,0.234c0.266,0.203,0.422,0.469,0.469,0.797c0.047,0.344-0.031,0.648-0.234,0.914
			c-0.844,1.141-1.883,2.023-3.117,2.648s-2.563,0.938-3.984,0.938H515.52z M509.122,568.453h11.742v-0.422
			c0-1.844-0.547-3.367-1.641-4.57c-1.109-1.203-2.508-1.805-4.195-1.805h-0.07c-1.688,0-3.078,0.602-4.172,1.805
			c-1.109,1.203-1.664,2.727-1.664,4.57V568.453z"/>
		<path fill="#FFFFFF" d="M530.661,570.609c-1.578,0-2.922-0.555-4.031-1.664c-1.109-1.125-1.664-2.469-1.664-4.031
			s0.555-2.906,1.664-4.031c1.109-1.109,2.453-1.664,4.031-1.664h5.25c1.578,0,2.922,0.555,4.031,1.664
			c0.234,0.25,0.352,0.539,0.352,0.867c0,0.344-0.117,0.633-0.352,0.867s-0.523,0.352-0.867,0.352s-0.633-0.117-0.867-0.352
			c-0.625-0.641-1.391-0.961-2.297-0.961h-5.25c-0.891,0-1.656,0.32-2.297,0.961s-0.961,1.406-0.961,2.297s0.32,1.656,0.961,2.297
			s1.406,0.961,2.297,0.961h4.945c1.656,0,3.07,0.586,4.242,1.758s1.758,2.586,1.758,4.242s-0.586,3.07-1.758,4.242
			s-2.586,1.758-4.242,1.758h-5.742c-1.656,0-3.07-0.586-4.242-1.758c-0.234-0.234-0.352-0.523-0.352-0.867s0.117-0.633,0.352-0.867
			s0.523-0.352,0.867-0.352c0.328,0,0.609,0.117,0.844,0.352c0.703,0.703,1.547,1.055,2.531,1.055h5.742
			c0.984,0,1.82-0.352,2.508-1.055c0.703-0.688,1.055-1.523,1.055-2.508s-0.352-1.828-1.055-2.531
			c-0.688-0.688-1.523-1.031-2.508-1.031H530.661z"/>
		<path fill="#FFFFFF" d="M552.645,580.172c-2.406,0-4.461-0.852-6.164-2.555s-2.555-3.758-2.555-6.164v-20.109
			c0-0.328,0.117-0.609,0.352-0.844s0.523-0.352,0.867-0.352c0.328,0,0.609,0.117,0.844,0.352s0.352,0.516,0.352,0.844v7.945h4.898
			c0.328,0,0.609,0.117,0.844,0.352s0.352,0.523,0.352,0.867c0,0.328-0.117,0.609-0.352,0.844s-0.516,0.352-0.844,0.352h-4.898v9.75
			c0,1.734,0.617,3.219,1.852,4.453s2.719,1.852,4.453,1.852h1.453c0.344,0,0.633,0.117,0.867,0.352s0.352,0.516,0.352,0.844
			c0,0.344-0.117,0.633-0.352,0.867s-0.523,0.352-0.867,0.352H552.645z"/>
	</g>
	<rect x="400.198" y="4.504" fill="none" width="184.666" height="45.333"/>
	<g enable-background="new    ">
		<path fill="#FFFFFF" d="M401.487,6.309c-0.125-0.359-0.102-0.711,0.07-1.055s0.438-0.57,0.797-0.68
			c0.375-0.125,0.727-0.102,1.055,0.07c0.344,0.172,0.578,0.438,0.703,0.797l7.688,23.25l7.711-23.25
			c0.109-0.359,0.336-0.625,0.68-0.797s0.695-0.195,1.055-0.07c0.375,0.109,0.648,0.336,0.82,0.68s0.195,0.695,0.07,1.055
			l-3.75,11.344l3.563,10.992l7.688-23.203c0.125-0.359,0.359-0.625,0.703-0.797c0.328-0.172,0.68-0.195,1.055-0.07
			c0.359,0.109,0.625,0.336,0.797,0.68s0.195,0.695,0.07,1.055l-9,27.234c-0.219,0.641-0.656,0.961-1.313,0.961h-0.023
			c-0.656,0-1.094-0.32-1.313-0.961l-3.703-11.438l-3.773,11.438c-0.219,0.641-0.664,0.961-1.336,0.961
			c-0.656,0-1.094-0.32-1.313-0.961L401.487,6.309z"/>
		<path fill="#FFFFFF" d="M442.456,34.504c-2.438,0-4.516-0.867-6.234-2.602c-1.734-1.719-2.602-3.797-2.602-6.234v-3.281
			c0-2.438,0.867-4.523,2.602-6.258c1.719-1.719,3.797-2.578,6.234-2.578h0.07c2.438,0,4.523,0.859,6.258,2.578
			c1.719,1.734,2.578,3.82,2.578,6.258v10.898c0,0.328-0.117,0.617-0.352,0.867c-0.25,0.234-0.539,0.352-0.867,0.352
			c-0.344,0-0.633-0.117-0.867-0.352c-0.234-0.25-0.352-0.539-0.352-0.867v-1.523c-1.75,1.828-3.883,2.742-6.398,2.742H442.456z
			 M436.057,25.668c0,1.766,0.625,3.273,1.875,4.523s2.758,1.875,4.523,1.875h0.07c1.766,0,3.273-0.625,4.523-1.875
			s1.875-2.758,1.875-4.523v-3.281c0-1.766-0.625-3.273-1.875-4.523s-2.758-1.875-4.523-1.875h-0.07
			c-1.766,0-3.273,0.625-4.523,1.875s-1.875,2.758-1.875,4.523V25.668z"/>
		<path fill="#FFFFFF" d="M457.479,34.504c-0.328,0-0.617-0.117-0.867-0.352c-0.234-0.25-0.352-0.539-0.352-0.867V22.387
			c0-2.438,0.867-4.523,2.602-6.258c1.719-1.719,3.797-2.578,6.234-2.578h1.477c0.328,0,0.617,0.117,0.867,0.352
			c0.234,0.234,0.352,0.523,0.352,0.867s-0.117,0.633-0.352,0.867c-0.25,0.234-0.539,0.352-0.867,0.352h-1.477
			c-1.766,0-3.273,0.625-4.523,1.875s-1.875,2.758-1.875,4.523v10.898c0,0.328-0.117,0.617-0.352,0.867
			C458.112,34.387,457.823,34.504,457.479,34.504z"/>
		<path fill="#FFFFFF" d="M475.151,24.942c-1.578,0-2.922-0.555-4.031-1.664c-1.109-1.125-1.664-2.469-1.664-4.031
			s0.555-2.906,1.664-4.031c1.109-1.109,2.453-1.664,4.031-1.664h5.25c1.578,0,2.922,0.555,4.031,1.664
			c0.234,0.25,0.352,0.539,0.352,0.867c0,0.344-0.117,0.633-0.352,0.867s-0.523,0.352-0.867,0.352s-0.633-0.117-0.867-0.352
			c-0.625-0.641-1.391-0.961-2.297-0.961h-5.25c-0.891,0-1.656,0.32-2.297,0.961s-0.961,1.406-0.961,2.297s0.32,1.656,0.961,2.297
			s1.406,0.961,2.297,0.961h4.945c1.656,0,3.07,0.586,4.242,1.758s1.758,2.586,1.758,4.242s-0.586,3.07-1.758,4.242
			s-2.586,1.758-4.242,1.758h-5.742c-1.656,0-3.07-0.586-4.242-1.758c-0.234-0.234-0.352-0.523-0.352-0.867s0.117-0.633,0.352-0.867
			s0.523-0.352,0.867-0.352c0.328,0,0.609,0.117,0.844,0.352c0.703,0.703,1.547,1.055,2.531,1.055h5.742
			c0.984,0,1.82-0.352,2.508-1.055c0.703-0.688,1.055-1.523,1.055-2.508s-0.352-1.828-1.055-2.531
			c-0.688-0.688-1.523-1.031-2.508-1.031H475.151z"/>
		<path fill="#FFFFFF" d="M497.206,34.504c-2.438,0-4.516-0.867-6.234-2.602c-1.734-1.719-2.602-3.797-2.602-6.234v-3.281
			c0-2.438,0.867-4.523,2.602-6.258c1.719-1.719,3.797-2.578,6.234-2.578h0.07c2.438,0,4.523,0.859,6.258,2.578
			c1.719,1.734,2.578,3.82,2.578,6.258v10.898c0,0.328-0.117,0.617-0.352,0.867c-0.25,0.234-0.539,0.352-0.867,0.352
			c-0.344,0-0.633-0.117-0.867-0.352c-0.234-0.25-0.352-0.539-0.352-0.867v-1.523c-1.75,1.828-3.883,2.742-6.398,2.742H497.206z
			 M490.807,25.668c0,1.766,0.625,3.273,1.875,4.523s2.758,1.875,4.523,1.875h0.07c1.766,0,3.273-0.625,4.523-1.875
			s1.875-2.758,1.875-4.523v-3.281c0-1.766-0.625-3.273-1.875-4.523s-2.758-1.875-4.523-1.875h-0.07
			c-1.766,0-3.273,0.625-4.523,1.875s-1.875,2.758-1.875,4.523V25.668z"/>
		<path fill="#FFFFFF" d="M509.276,15.122c-0.125-0.313-0.125-0.625,0-0.938c0.141-0.313,0.367-0.539,0.68-0.68
			c0.313-0.125,0.625-0.125,0.938,0c0.328,0.141,0.555,0.367,0.68,0.68l6.469,15.82l6.469-15.82c0.141-0.313,0.367-0.539,0.68-0.68
			c0.313-0.125,0.625-0.125,0.938,0c0.313,0.141,0.539,0.367,0.68,0.68c0.125,0.313,0.125,0.625,0,0.938l-1.852,4.523l4.242,10.359
			l6.469-15.82c0.125-0.313,0.344-0.539,0.656-0.68c0.313-0.125,0.633-0.125,0.961,0c0.313,0.141,0.531,0.367,0.656,0.68
			c0.141,0.313,0.141,0.625,0,0.938l-7.617,18.609c-0.203,0.516-0.578,0.773-1.125,0.773c-0.563,0-0.945-0.258-1.148-0.773
			l-4.43-10.828l-4.43,10.828c-0.219,0.516-0.602,0.773-1.148,0.773s-0.93-0.258-1.148-0.773L509.276,15.122z"/>
	</g>
	<rect x="403.198" y="255.67" fill="none" width="184.666" height="45.333"/>
	<g enable-background="new    ">
		<path fill="#FFFFFF" d="M406.596,284.944c-0.188,0-0.352-0.07-0.492-0.211s-0.211-0.305-0.211-0.492v-27.82
			c0-0.203,0.07-0.367,0.211-0.492c0.141-0.141,0.305-0.211,0.492-0.211c0.203,0,0.375,0.07,0.516,0.211
			c0.125,0.125,0.188,0.289,0.188,0.492v17.602h4.008c2.313-0.094,4.258-0.992,5.836-2.695c1.578-1.719,2.328-3.742,2.25-6.07
			v-8.836c0-0.203,0.07-0.367,0.211-0.492c0.125-0.141,0.289-0.211,0.492-0.211s0.367,0.07,0.492,0.211
			c0.141,0.125,0.211,0.289,0.211,0.492v8.813c0.078,2.094-0.461,4.023-1.617,5.789c-1.125,1.703-2.641,2.938-4.547,3.703
			c1.906,0.781,3.422,2.031,4.547,3.75c1.156,1.75,1.695,3.68,1.617,5.789c0,0.188-0.07,0.344-0.211,0.469
			c-0.141,0.141-0.305,0.211-0.492,0.211h-0.023c-0.203-0.016-0.367-0.094-0.492-0.234c-0.141-0.141-0.203-0.313-0.188-0.516
			c0.094-2.328-0.656-4.344-2.25-6.047c-1.578-1.719-3.531-2.617-5.859-2.695h-3.984v8.789c0,0.188-0.063,0.352-0.188,0.492
			C406.971,284.874,406.799,284.944,406.596,284.944z"/>
		<path fill="#FFFFFF" d="M425.393,284.944c-0.156,0-0.297-0.063-0.422-0.188s-0.188-0.266-0.188-0.422v-11.063
			c0-2.297,0.813-4.258,2.438-5.883c1.641-1.641,3.609-2.461,5.906-2.461h1.477c0.172,0,0.32,0.063,0.445,0.188
			s0.188,0.273,0.188,0.445s-0.063,0.32-0.188,0.445c-0.125,0.109-0.273,0.164-0.445,0.164h-1.477c-1.953,0-3.625,0.695-5.016,2.086
			s-2.086,3.063-2.086,5.016v11.063c0,0.156-0.063,0.297-0.188,0.422S425.565,284.944,425.393,284.944z"/>
		<path fill="#FFFFFF" d="M446.112,284.944c-2.297,0-4.258-0.813-5.883-2.438c-1.641-1.641-2.461-3.609-2.461-5.906v-3.352
			c0-2.297,0.82-4.266,2.461-5.906c1.625-1.625,3.586-2.438,5.883-2.438h0.094c2.297,0,4.258,0.813,5.883,2.438
			c1.641,1.641,2.461,3.609,2.461,5.906v11.086c0,0.156-0.063,0.297-0.188,0.422s-0.273,0.188-0.445,0.188s-0.313-0.063-0.422-0.188
			c-0.125-0.125-0.188-0.266-0.188-0.422v-3.375c-0.75,1.219-1.742,2.18-2.977,2.883c-1.281,0.734-2.656,1.102-4.125,1.102H446.112z
			 M439.01,276.6c0,1.953,0.695,3.625,2.086,5.016s3.063,2.086,5.016,2.086h0.094c1.953,0,3.625-0.695,5.016-2.086
			s2.086-3.063,2.086-5.016v-3.352c0-1.953-0.695-3.625-2.086-5.016s-3.063-2.086-5.016-2.086h-0.094
			c-1.953,0-3.625,0.695-5.016,2.086s-2.086,3.063-2.086,5.016V276.6z"/>
		<path fill="#FFFFFF" d="M460.432,284.944c-0.172,0-0.313-0.063-0.422-0.188c-0.125-0.109-0.188-0.25-0.188-0.422v-28.031
			c0-0.172,0.063-0.313,0.188-0.422c0.109-0.125,0.25-0.188,0.422-0.188s0.32,0.063,0.445,0.188c0.109,0.109,0.164,0.25,0.164,0.422
			v17.906h1.055c0.359-0.016,0.68-0.039,0.961-0.07c1.797-0.266,3.32-1.047,4.57-2.344s1.969-2.852,2.156-4.664
			c0.016-0.156,0.086-0.289,0.211-0.398c0.141-0.109,0.289-0.156,0.445-0.141c0.172,0.016,0.313,0.086,0.422,0.211
			c0.109,0.141,0.156,0.289,0.141,0.445c-0.172,1.672-0.75,3.172-1.734,4.5c-0.969,1.313-2.203,2.297-3.703,2.953
			c1.813,0.609,3.281,1.695,4.406,3.258c1.156,1.578,1.734,3.352,1.734,5.32c0,0.344-0.023,0.719-0.07,1.125
			c-0.047,0.359-0.25,0.539-0.609,0.539c-0.031,0-0.055,0-0.07,0c-0.172-0.031-0.313-0.109-0.422-0.234
			c-0.094-0.141-0.133-0.289-0.117-0.445c0.047-0.359,0.07-0.688,0.07-0.984c0-2.156-0.766-4.008-2.297-5.555
			c-1.547-1.531-3.398-2.297-5.555-2.297h-1.594v8.906c0,0.172-0.055,0.313-0.164,0.422
			C460.752,284.881,460.604,284.944,460.432,284.944z"/>
		<path fill="#FFFFFF" d="M482.557,284.944c-2.297,0-4.258-0.813-5.883-2.438s-2.438-3.586-2.438-5.883v-3.328
			c0-2.281,0.813-4.234,2.438-5.859s3.586-2.438,5.883-2.438h0.07c2.297,0,4.258,0.813,5.883,2.438s2.438,3.578,2.438,5.859v3.328
			c0,2.297-0.813,4.258-2.438,5.883s-3.586,2.438-5.883,2.438H482.557z M475.479,276.624c0,1.953,0.688,3.625,2.063,5.016
			c1.391,1.375,3.063,2.063,5.016,2.063h0.07c1.953,0,3.617-0.688,4.992-2.063c1.391-1.391,2.086-3.063,2.086-5.016v-3.328
			c0-1.953-0.695-3.617-2.086-4.992c-1.375-1.391-3.039-2.086-4.992-2.086h-0.07c-1.953,0-3.625,0.695-5.016,2.086
			c-1.375,1.375-2.063,3.039-2.063,4.992V276.624z"/>
		<path fill="#FFFFFF" d="M493.221,265.819c-0.063-0.172-0.063-0.336,0-0.492c0.078-0.156,0.195-0.266,0.352-0.328
			s0.313-0.063,0.469,0s0.266,0.18,0.328,0.352l7.102,17.32l5.039-12.305l2.063-5.016c0.063-0.172,0.172-0.289,0.328-0.352
			s0.313-0.063,0.469,0c0.172,0.063,0.289,0.172,0.352,0.328s0.063,0.32,0,0.492l-1.969,4.781l4.945,12.07l7.102-17.32
			c0.063-0.172,0.172-0.289,0.328-0.352s0.313-0.063,0.469,0s0.273,0.172,0.352,0.328c0.063,0.156,0.063,0.32,0,0.492l-7.664,18.75
			c-0.109,0.25-0.305,0.375-0.586,0.375s-0.477-0.125-0.586-0.375l-5.039-12.328l-5.016,12.328c-0.109,0.25-0.305,0.375-0.586,0.375
			s-0.477-0.125-0.586-0.375L493.221,265.819z"/>
	</g>
	<rect x="266.532" y="414.672" fill="none" width="446.666" height="76.166"/>
	<g enable-background="new    ">
		<path fill="#FFFFFF" d="M271.055,443.943c-0.188,0-0.352-0.07-0.492-0.211s-0.211-0.305-0.211-0.492v-27.867
			c0-0.203,0.07-0.375,0.211-0.516c0.141-0.125,0.305-0.188,0.492-0.188c0.203,0,0.375,0.063,0.516,0.188
			c0.141,0.141,0.211,0.313,0.211,0.516v17.625h14.414v-17.625c0-0.203,0.07-0.375,0.211-0.516c0.141-0.125,0.305-0.188,0.492-0.188
			c0.203,0,0.375,0.063,0.516,0.188c0.141,0.141,0.211,0.313,0.211,0.516v27.867c0,0.188-0.07,0.352-0.211,0.492
			s-0.313,0.211-0.516,0.211c-0.188,0-0.352-0.07-0.492-0.211s-0.211-0.305-0.211-0.492v-8.836h-14.414v8.836
			c0,0.188-0.07,0.352-0.211,0.492S271.258,443.943,271.055,443.943z"/>
		<path fill="#FFFFFF" d="M294.399,419.779c-0.391,0-0.727-0.141-1.008-0.422s-0.422-0.617-0.422-1.008
			c0-0.406,0.141-0.75,0.422-1.031s0.617-0.422,1.008-0.422s0.727,0.141,1.008,0.422s0.422,0.625,0.422,1.031
			c0,0.391-0.141,0.727-0.422,1.008S294.79,419.779,294.399,419.779z M294.399,423.951c-0.172,0-0.32,0.055-0.445,0.164
			c-0.109,0.125-0.164,0.273-0.164,0.445v18.773c0,0.172,0.055,0.313,0.164,0.422c0.125,0.125,0.273,0.188,0.445,0.188
			s0.32-0.063,0.445-0.188c0.125-0.109,0.188-0.25,0.188-0.422v-18.773c0-0.172-0.063-0.32-0.188-0.445
			C294.719,424.006,294.571,423.951,294.399,423.951z"/>
		<path fill="#FFFFFF" d="M307.758,443.756c-2.266,0-4.211-0.813-5.836-2.438c-1.609-1.609-2.414-3.555-2.414-5.836v-3.281
			c0-2.281,0.805-4.227,2.414-5.836c1.625-1.625,3.57-2.438,5.836-2.438h0.07c2.281,0,4.227,0.813,5.836,2.438
			c1.625,1.609,2.438,3.555,2.438,5.836v12.773c0,2.266-0.813,4.211-2.438,5.836c-1.609,1.609-3.555,2.414-5.836,2.414h-0.07
			c-1.594,0-3.055-0.414-4.383-1.242s-2.336-1.961-3.023-3.398c-0.078-0.156-0.094-0.313-0.047-0.469
			c0.063-0.156,0.172-0.273,0.328-0.352c0.141-0.078,0.297-0.086,0.469-0.023c0.156,0.047,0.273,0.148,0.352,0.305
			c0.594,1.219,1.453,2.18,2.578,2.883c1.141,0.719,2.383,1.078,3.727,1.078h0.07c1.938,0,3.594-0.688,4.969-2.063
			s2.063-3.031,2.063-4.969v-5.18c-0.734,1.203-1.711,2.156-2.93,2.859c-1.266,0.734-2.633,1.102-4.102,1.102H307.758z
			 M300.727,435.482c0,1.938,0.688,3.594,2.063,4.969s3.031,2.063,4.969,2.063h0.07c1.953,0,3.609-0.688,4.969-2.063
			c1.375-1.375,2.063-3.031,2.063-4.969v-3.281c0-1.953-0.688-3.609-2.063-4.969c-1.359-1.375-3.016-2.063-4.969-2.063h-0.07
			c-1.938,0-3.594,0.688-4.969,2.063s-2.063,3.031-2.063,4.969V435.482z"/>
		<path fill="#FFFFFF" d="M320.555,443.943c-0.172,0-0.313-0.063-0.422-0.188c-0.125-0.109-0.188-0.25-0.188-0.422v-28.078
			c0-0.172,0.063-0.313,0.188-0.422c0.109-0.125,0.25-0.188,0.422-0.188s0.32,0.063,0.445,0.188c0.109,0.109,0.164,0.25,0.164,0.422
			v12.82c0.75-1.203,1.734-2.156,2.953-2.859c1.266-0.734,2.625-1.102,4.078-1.102h0.07c2.281,0,4.234,0.813,5.859,2.438
			c1.609,1.609,2.414,3.555,2.414,5.836v10.945c0,0.172-0.063,0.313-0.188,0.422c-0.109,0.125-0.25,0.188-0.422,0.188
			s-0.32-0.063-0.445-0.188c-0.109-0.109-0.164-0.25-0.164-0.422v-10.945c0-1.938-0.688-3.594-2.063-4.969s-3.039-2.063-4.992-2.063
			h-0.07c-1.938,0-3.594,0.688-4.969,2.063s-2.063,3.031-2.063,4.969v10.945c0,0.172-0.055,0.313-0.164,0.422
			C320.875,443.881,320.727,443.943,320.555,443.943z"/>
		<path fill="#FFFFFF" d="M350.016,416.006c-0.188,0-0.352-0.063-0.492-0.188c-0.141-0.141-0.211-0.313-0.211-0.516
			c0-0.188,0.07-0.352,0.211-0.492s0.305-0.211,0.492-0.211h15.867c0.203,0,0.375,0.07,0.516,0.211s0.211,0.305,0.211,0.492
			c0,0.203-0.07,0.375-0.211,0.516c-0.141,0.125-0.313,0.188-0.516,0.188h-7.219v27.234c0,0.188-0.07,0.352-0.211,0.492
			s-0.305,0.211-0.492,0.211c-0.203,0-0.375-0.07-0.516-0.211c-0.125-0.141-0.188-0.305-0.188-0.492v-27.234H350.016z"/>
		<path fill="#FFFFFF" d="M376.758,443.943c-2.297,0-4.258-0.813-5.883-2.438c-1.641-1.641-2.461-3.609-2.461-5.906v-3.352
			c0-2.297,0.82-4.266,2.461-5.906c1.625-1.625,3.586-2.438,5.883-2.438h0.094c2.297,0,4.258,0.813,5.883,2.438
			c1.641,1.641,2.461,3.609,2.461,5.906v11.086c0,0.156-0.063,0.297-0.188,0.422s-0.273,0.188-0.445,0.188s-0.313-0.063-0.422-0.188
			c-0.125-0.125-0.188-0.266-0.188-0.422v-3.375c-0.75,1.219-1.742,2.18-2.977,2.883c-1.281,0.734-2.656,1.102-4.125,1.102H376.758z
			 M369.657,435.6c0,1.953,0.695,3.625,2.086,5.016s3.063,2.086,5.016,2.086h0.094c1.953,0,3.625-0.695,5.016-2.086
			s2.086-3.063,2.086-5.016v-3.352c0-1.953-0.695-3.625-2.086-5.016s-3.063-2.086-5.016-2.086h-0.094
			c-1.953,0-3.625,0.695-5.016,2.086s-2.086,3.063-2.086,5.016V435.6z"/>
		<path fill="#FFFFFF" d="M396.54,443.943c-2.266,0-4.211-0.805-5.836-2.414c-1.609-1.625-2.414-3.57-2.414-5.836v-20.414
			c0-0.172,0.063-0.32,0.188-0.445c0.109-0.125,0.25-0.188,0.422-0.188s0.32,0.063,0.445,0.188c0.109,0.125,0.164,0.273,0.164,0.445
			v8.766h5.578c0.344,0,0.516,0.172,0.516,0.516s-0.172,0.516-0.516,0.516h-5.578v10.617c0,1.938,0.688,3.594,2.063,4.969
			s3.031,2.063,4.969,2.063h1.477c0.172,0,0.32,0.055,0.445,0.164c0.109,0.125,0.164,0.273,0.164,0.445s-0.055,0.313-0.164,0.422
			c-0.125,0.125-0.273,0.188-0.445,0.188H396.54z"/>
		<path fill="#FFFFFF" d="M403.125,443.943c-0.156,0-0.297-0.063-0.422-0.188s-0.188-0.266-0.188-0.422v-11.063
			c0-2.297,0.813-4.258,2.438-5.883c1.641-1.641,3.609-2.461,5.906-2.461h1.477c0.172,0,0.32,0.063,0.445,0.188
			s0.188,0.273,0.188,0.445s-0.063,0.32-0.188,0.445c-0.125,0.109-0.273,0.164-0.445,0.164h-1.477c-1.953,0-3.625,0.695-5.016,2.086
			s-2.086,3.063-2.086,5.016v11.063c0,0.156-0.063,0.297-0.188,0.422S403.297,443.943,403.125,443.943z"/>
		<path fill="#FFFFFF" d="M423.844,443.943c-2.297,0-4.258-0.813-5.883-2.438c-1.641-1.641-2.461-3.609-2.461-5.906v-3.352
			c0-2.297,0.82-4.266,2.461-5.906c1.625-1.625,3.586-2.438,5.883-2.438h0.094c2.297,0,4.258,0.813,5.883,2.438
			c1.641,1.641,2.461,3.609,2.461,5.906v11.086c0,0.156-0.063,0.297-0.188,0.422s-0.273,0.188-0.445,0.188s-0.313-0.063-0.422-0.188
			c-0.125-0.125-0.188-0.266-0.188-0.422v-3.375c-0.75,1.219-1.742,2.18-2.977,2.883c-1.281,0.734-2.656,1.102-4.125,1.102H423.844z
			 M416.743,435.6c0,1.953,0.695,3.625,2.086,5.016s3.063,2.086,5.016,2.086h0.094c1.953,0,3.625-0.695,5.016-2.086
			s2.086-3.063,2.086-5.016v-3.352c0-1.953-0.695-3.625-2.086-5.016s-3.063-2.086-5.016-2.086h-0.094
			c-1.953,0-3.625,0.695-5.016,2.086s-2.086,3.063-2.086,5.016V435.6z"/>
		<path fill="#FFFFFF" d="M440.344,434.24c-1.422,0-2.641-0.5-3.656-1.5c-1-1.016-1.5-2.234-1.5-3.656s0.5-2.633,1.5-3.633
			c1.016-1.016,2.234-1.523,3.656-1.523h5.32c1.422,0,2.641,0.508,3.656,1.523c0.125,0.109,0.188,0.25,0.188,0.422
			s-0.063,0.32-0.188,0.445s-0.273,0.188-0.445,0.188s-0.32-0.063-0.445-0.188c-0.75-0.766-1.672-1.148-2.766-1.148h-5.32
			c-1.078,0-2,0.383-2.766,1.148s-1.148,1.688-1.148,2.766s0.383,2,1.148,2.766s1.688,1.148,2.766,1.148h5.016
			c1.5,0,2.789,0.539,3.867,1.617c1.063,1.063,1.594,2.352,1.594,3.867c0,1.5-0.531,2.789-1.594,3.867
			c-1.078,1.063-2.367,1.594-3.867,1.594h-5.836c-1.5,0-2.789-0.531-3.867-1.594c-0.109-0.125-0.164-0.273-0.164-0.445
			s0.055-0.32,0.164-0.445c0.125-0.125,0.273-0.188,0.445-0.188s0.32,0.063,0.445,0.188c0.828,0.828,1.82,1.242,2.977,1.242h5.836
			c1.156,0,2.148-0.414,2.977-1.242s1.242-1.82,1.242-2.977c0-1.172-0.414-2.172-1.242-3s-1.82-1.242-2.977-1.242H440.344z"/>
		<path fill="#FFFFFF" d="M465.211,443.943c-0.188,0-0.352-0.07-0.492-0.211s-0.211-0.305-0.211-0.492v-27.797
			c0-0.375,0.18-0.602,0.539-0.68c0.375-0.094,0.641,0.031,0.797,0.375l8.344,16.992l8.344-16.992
			c0.172-0.344,0.438-0.469,0.797-0.375c0.375,0.078,0.563,0.305,0.563,0.68v27.797c0,0.188-0.07,0.352-0.211,0.492
			s-0.313,0.211-0.516,0.211c-0.188,0-0.352-0.07-0.492-0.211s-0.211-0.305-0.211-0.492v-24.75l-7.641,15.539
			c0.016-0.016,0.016-0.008,0,0.023s-0.031,0.055-0.047,0.07l-0.023,0.047c-0.016,0.016-0.031,0.031-0.047,0.047
			c-0.031,0.031-0.055,0.047-0.07,0.047c0,0.016-0.016,0.031-0.047,0.047c-0.016,0.016-0.039,0.031-0.07,0.047
			c-0.016,0-0.023,0.008-0.023,0.023h-0.023c-0.031,0.016-0.055,0.023-0.07,0.023s-0.039,0.008-0.07,0.023c-0.031,0-0.055,0-0.07,0
			s-0.039,0-0.07,0c-0.016,0-0.039,0-0.07,0c-0.016,0-0.039,0-0.07,0c-0.016-0.016-0.031-0.023-0.047-0.023
			c-0.031-0.016-0.055-0.023-0.07-0.023l-0.047-0.023c0.016,0.016,0.008,0.016-0.023,0c-0.016-0.016-0.039-0.031-0.07-0.047
			c-0.016-0.016-0.031-0.031-0.047-0.047c0,0.016-0.016,0-0.047-0.047l-0.047-0.047l-0.047-0.047
			c-0.016-0.031-0.023-0.055-0.023-0.07l-0.023-0.023l-7.641-15.539v24.75c0,0.188-0.063,0.352-0.188,0.492
			c-0.141,0.141-0.211,0.211-0.211,0.211S465.415,443.943,465.211,443.943z"/>
		<path fill="#FFFFFF" d="M494.555,443.943c-2.297,0-4.258-0.813-5.883-2.438s-2.438-3.586-2.438-5.883v-3.328
			c0-2.281,0.813-4.234,2.438-5.859s3.586-2.438,5.883-2.438h0.07c2.297,0,4.258,0.813,5.883,2.438s2.438,3.578,2.438,5.859v3.328
			c0,2.297-0.813,4.258-2.438,5.883s-3.586,2.438-5.883,2.438H494.555z M487.477,435.623c0,1.953,0.688,3.625,2.063,5.016
			c1.391,1.375,3.063,2.063,5.016,2.063h0.07c1.953,0,3.617-0.688,4.992-2.063c1.391-1.391,2.086-3.063,2.086-5.016v-3.328
			c0-1.953-0.695-3.617-2.086-4.992c-1.375-1.391-3.039-2.086-4.992-2.086h-0.07c-1.953,0-3.625,0.695-5.016,2.086
			c-1.375,1.375-2.063,3.039-2.063,4.992V435.623z"/>
		<path fill="#FFFFFF" d="M521.93,423.951c0.172,0,0.32,0.055,0.445,0.164c0.109,0.125,0.164,0.273,0.164,0.445V435.6
			c0,2.297-0.813,4.266-2.438,5.906c-1.625,1.625-3.586,2.438-5.883,2.438h-0.07c-2.297,0-4.266-0.813-5.906-2.438
			c-1.625-1.641-2.438-3.609-2.438-5.906v-11.039c0-0.172,0.063-0.32,0.188-0.445c0.109-0.109,0.25-0.164,0.422-0.164
			s0.32,0.055,0.445,0.164c0.125,0.125,0.188,0.273,0.188,0.445V435.6c0,1.969,0.695,3.641,2.086,5.016
			c1.375,1.391,3.047,2.086,5.016,2.086h0.07c1.953,0,3.625-0.695,5.016-2.086c1.391-1.375,2.086-3.047,2.086-5.016v-11.039
			c0-0.172,0.055-0.32,0.164-0.445C521.61,424.006,521.758,423.951,521.93,423.951z"/>
		<path fill="#FFFFFF" d="M528.399,443.943c-0.156,0-0.297-0.063-0.422-0.188c-0.125-0.109-0.188-0.25-0.188-0.422v-11.063
			c0-2.297,0.813-4.258,2.438-5.883c1.641-1.625,3.609-2.438,5.906-2.438h0.07c2.297,0,4.258,0.813,5.883,2.438
			s2.438,3.586,2.438,5.883v11.063c0,0.172-0.055,0.313-0.164,0.422c-0.125,0.125-0.273,0.188-0.445,0.188s-0.32-0.063-0.445-0.188
			c-0.109-0.109-0.164-0.25-0.164-0.422v-11.063c0-1.953-0.695-3.625-2.086-5.016s-3.063-2.086-5.016-2.086h-0.07
			c-1.969,0-3.641,0.695-5.016,2.086c-1.391,1.391-2.086,3.063-2.086,5.016v11.063c0,0.156-0.063,0.297-0.188,0.422
			S528.571,443.943,528.399,443.943z"/>
		<path fill="#FFFFFF" d="M556.008,443.943c-2.266,0-4.211-0.805-5.836-2.414c-1.609-1.625-2.414-3.57-2.414-5.836v-20.414
			c0-0.172,0.063-0.32,0.188-0.445c0.109-0.125,0.25-0.188,0.422-0.188s0.32,0.063,0.445,0.188c0.109,0.125,0.164,0.273,0.164,0.445
			v8.766h5.578c0.344,0,0.516,0.172,0.516,0.516s-0.172,0.516-0.516,0.516h-5.578v10.617c0,1.938,0.688,3.594,2.063,4.969
			s3.031,2.063,4.969,2.063h1.477c0.172,0,0.32,0.055,0.445,0.164c0.109,0.125,0.164,0.273,0.164,0.445s-0.055,0.313-0.164,0.422
			c-0.125,0.125-0.273,0.188-0.445,0.188H556.008z"/>
		<path fill="#FFFFFF" d="M569.063,443.943c-2.297,0-4.258-0.813-5.883-2.438c-1.641-1.641-2.461-3.609-2.461-5.906v-3.352
			c0-2.297,0.82-4.266,2.461-5.906c1.625-1.625,3.586-2.438,5.883-2.438h0.094c2.297,0,4.258,0.813,5.883,2.438
			c1.641,1.641,2.461,3.609,2.461,5.906v11.086c0,0.156-0.063,0.297-0.188,0.422s-0.273,0.188-0.445,0.188s-0.313-0.063-0.422-0.188
			c-0.125-0.125-0.188-0.266-0.188-0.422v-3.375c-0.75,1.219-1.742,2.18-2.977,2.883c-1.281,0.734-2.656,1.102-4.125,1.102H569.063z
			 M561.961,435.6c0,1.953,0.695,3.625,2.086,5.016s3.063,2.086,5.016,2.086h0.094c1.953,0,3.625-0.695,5.016-2.086
			s2.086-3.063,2.086-5.016v-3.352c0-1.953-0.695-3.625-2.086-5.016s-3.063-2.086-5.016-2.086h-0.094
			c-1.953,0-3.625,0.695-5.016,2.086s-2.086,3.063-2.086,5.016V435.6z"/>
		<path fill="#FFFFFF" d="M583.196,419.779c-0.391,0-0.727-0.141-1.008-0.422s-0.422-0.617-0.422-1.008
			c0-0.406,0.141-0.75,0.422-1.031s0.617-0.422,1.008-0.422s0.727,0.141,1.008,0.422s0.422,0.625,0.422,1.031
			c0,0.391-0.141,0.727-0.422,1.008S583.586,419.779,583.196,419.779z M583.196,423.951c-0.172,0-0.32,0.055-0.445,0.164
			c-0.109,0.125-0.164,0.273-0.164,0.445v18.773c0,0.172,0.055,0.313,0.164,0.422c0.125,0.125,0.273,0.188,0.445,0.188
			s0.32-0.063,0.445-0.188c0.125-0.109,0.188-0.25,0.188-0.422v-18.773c0-0.172-0.063-0.32-0.188-0.445
			C583.516,424.006,583.368,423.951,583.196,423.951z"/>
		<path fill="#FFFFFF" d="M590.883,443.943c-0.156,0-0.297-0.063-0.422-0.188c-0.125-0.109-0.188-0.25-0.188-0.422v-11.063
			c0-2.297,0.813-4.258,2.438-5.883c1.641-1.625,3.609-2.438,5.906-2.438h0.07c2.297,0,4.258,0.813,5.883,2.438
			s2.438,3.586,2.438,5.883v11.063c0,0.172-0.055,0.313-0.164,0.422c-0.125,0.125-0.273,0.188-0.445,0.188s-0.32-0.063-0.445-0.188
			c-0.109-0.109-0.164-0.25-0.164-0.422v-11.063c0-1.953-0.695-3.625-2.086-5.016s-3.063-2.086-5.016-2.086h-0.07
			c-1.969,0-3.641,0.695-5.016,2.086c-1.391,1.391-2.086,3.063-2.086,5.016v11.063c0,0.156-0.063,0.297-0.188,0.422
			S591.055,443.943,590.883,443.943z"/>
		<path fill="#FFFFFF" d="M615.211,434.24c-1.422,0-2.641-0.5-3.656-1.5c-1-1.016-1.5-2.234-1.5-3.656s0.5-2.633,1.5-3.633
			c1.016-1.016,2.234-1.523,3.656-1.523h5.32c1.422,0,2.641,0.508,3.656,1.523c0.125,0.109,0.188,0.25,0.188,0.422
			s-0.063,0.32-0.188,0.445s-0.273,0.188-0.445,0.188s-0.32-0.063-0.445-0.188c-0.75-0.766-1.672-1.148-2.766-1.148h-5.32
			c-1.078,0-2,0.383-2.766,1.148s-1.148,1.688-1.148,2.766s0.383,2,1.148,2.766s1.688,1.148,2.766,1.148h5.016
			c1.5,0,2.789,0.539,3.867,1.617c1.063,1.063,1.594,2.352,1.594,3.867c0,1.5-0.531,2.789-1.594,3.867
			c-1.078,1.063-2.367,1.594-3.867,1.594h-5.836c-1.5,0-2.789-0.531-3.867-1.594c-0.109-0.125-0.164-0.273-0.164-0.445
			s0.055-0.32,0.164-0.445c0.125-0.125,0.273-0.188,0.445-0.188s0.32,0.063,0.445,0.188c0.828,0.828,1.82,1.242,2.977,1.242h5.836
			c1.156,0,2.148-0.414,2.977-1.242s1.242-1.82,1.242-2.977c0-1.172-0.414-2.172-1.242-3s-1.82-1.242-2.977-1.242H615.211z"/>
	</g>
</g>
</svg>
