<?xml version="1.0" encoding="utf-8"?>
<!-- Generator: Adobe Illustrator 16.0.0, SVG Export Plug-In . SVG Version: 6.00 Build 0)  -->
<!DOCTYPE svg PUBLIC "-//W3C//DTD SVG 1.1//EN" "http://www.w3.org/Graphics/SVG/1.1/DTD/svg11.dtd">
<svg version="1.1" xmlns="http://www.w3.org/2000/svg" xmlns:xlink="http://www.w3.org/1999/xlink" x="0px" y="0px"
	 width="789.902px" height="600px" viewBox="0 0 789.902 600" enable-background="new 0 0 789.902 600" xml:space="preserve">
<g id="Calque_4_1_" display="none">
	<ellipse display="inline" fill="#020202" cx="348.542" cy="249" rx="551.285" ry="386.993"/>
</g>
<g id="Calque_5" display="none">
	
		<image display="inline" overflow="visible" width="763" height="473" xlink:href="AFEF0CD3.jpg"  transform="matrix(1.4174 0 0 1.4174 -110.0527 -42.1611)">
	</image>
</g>
<g id="Calque_2_1_">
	
		<image display="none" overflow="visible" width="670" height="404" xlink:href="AFEF0CD6.jpg"  transform="matrix(1.5313 0 0 1.5313 -119.5415 4.5039)">
	</image>
	<circle fill="#FFFFFF" cx="307.441" cy="447.797" r="12.465"/>
	<circle fill="#FFFFFF" cx="462.93" cy="525.085" r="12.464"/>
	<circle fill="#FFFFFF" cx="514.806" cy="566.832" r="12.465"/>
	<circle fill="#FFFFFF" cx="458.221" cy="374.993" r="12.465"/>
	<circle fill="#FFFFFF" cx="434.414" cy="253.197" r="12.465"/>
	<circle fill="#FFFFFF" cx="226.359" cy="45.15" r="12.465"/>
	<circle fill="#FFFFFF" cx="206.638" cy="117.257" r="12.465"/>
</g>
<g id="Calque_1">
</g>
<g id="Calque_3">
	<g>
		<path fill="#FFFFFF" d="M265.219,56.402c-0.202-0.067-0.346-0.202-0.43-0.404c-0.084-0.185-0.093-0.379-0.025-0.581l11.094-30.022
			c0.118-0.32,0.354-0.48,0.708-0.48c0.336,0,0.564,0.161,0.682,0.48c0.017,0,3.715,10.007,11.094,30.022
			c0.067,0.202,0.059,0.396-0.025,0.581c-0.084,0.202-0.228,0.337-0.43,0.404c-0.084,0.034-0.177,0.051-0.278,0.051
			c-0.354,0-0.59-0.168-0.708-0.505l-3.589-9.755h-13.495l-3.614,9.755c-0.118,0.337-0.354,0.505-0.708,0.505
			c-0.101,0-0.151,0-0.151,0S265.303,56.436,265.219,56.402z M270.375,44.651h12.357l-6.166-16.754L270.375,44.651z"/>
		<path fill="#FFFFFF" d="M294.595,56.453c-0.169,0-0.32-0.067-0.455-0.202s-0.202-0.286-0.202-0.455V43.413
			c0-2.443,0.8-4.473,2.401-6.09c1.6-1.634,3.605-2.451,6.015-2.451h0.05c1.769,0,3.353,0.463,4.751,1.39
			c1.365,0.91,2.367,2.14,3.007,3.69c0.623-1.533,1.617-2.763,2.982-3.69c1.398-0.926,2.982-1.39,4.751-1.39h0.076
			c2.392,0,4.389,0.817,5.989,2.451c1.6,1.617,2.401,3.647,2.401,6.09v12.383c0,0.169-0.068,0.32-0.202,0.455
			c-0.118,0.135-0.27,0.202-0.455,0.202c-0.186,0-0.346-0.067-0.48-0.202c-0.135-0.135-0.202-0.286-0.202-0.455V43.413
			c0-2.055-0.674-3.773-2.021-5.155c-1.348-1.365-3.025-2.047-5.029-2.047h-0.076c-2.021,0-3.707,0.682-5.054,2.047
			c-1.348,1.382-2.021,3.1-2.021,5.155v12.383c0,0.169-0.068,0.32-0.202,0.455c-0.119,0.135-0.27,0.202-0.455,0.202
			c-0.186,0-0.346-0.067-0.48-0.202c-0.135-0.135-0.202-0.286-0.202-0.455V43.413c0-2.055-0.674-3.773-2.022-5.155
			c-1.348-1.365-3.032-2.047-5.054-2.047h-0.05c-2.022,0-3.707,0.682-5.054,2.047c-1.348,1.382-2.022,3.1-2.022,5.155v12.383
			c0,0.169-0.067,0.32-0.202,0.455S294.78,56.453,294.595,56.453z"/>
		<path fill="#FFFFFF" d="M336.708,45.991c-1.533,0-2.847-0.539-3.942-1.617c-1.079-1.095-1.618-2.409-1.618-3.942
			c0-1.533,0.539-2.838,1.618-3.917c1.095-1.095,2.409-1.643,3.942-1.643h5.737c1.533,0,2.847,0.548,3.942,1.643
			c0.134,0.118,0.202,0.27,0.202,0.455c0,0.186-0.068,0.346-0.202,0.48c-0.135,0.135-0.295,0.202-0.48,0.202
			c-0.186,0-0.346-0.067-0.48-0.202c-0.809-0.825-1.803-1.238-2.982-1.238h-5.737c-1.162,0-2.156,0.413-2.982,1.238
			c-0.826,0.826-1.238,1.819-1.238,2.982s0.413,2.157,1.238,2.982c0.826,0.826,1.82,1.238,2.982,1.238h5.408
			c1.617,0,3.007,0.582,4.17,1.744c1.145,1.146,1.718,2.536,1.718,4.17c0,1.617-0.573,3.007-1.718,4.169
			c-1.163,1.146-2.553,1.719-4.17,1.719h-6.292c-1.617,0-3.007-0.573-4.169-1.719c-0.119-0.134-0.177-0.294-0.177-0.48
			c0-0.185,0.059-0.345,0.177-0.48c0.134-0.135,0.294-0.202,0.48-0.202c0.185,0,0.345,0.067,0.48,0.202
			c0.893,0.893,1.963,1.339,3.209,1.339h6.292c1.247,0,2.316-0.446,3.209-1.339c0.893-0.893,1.339-1.963,1.339-3.209
			c0-1.264-0.447-2.342-1.339-3.235c-0.893-0.893-1.963-1.339-3.209-1.339H336.708z"/>
		<path fill="#FFFFFF" d="M360.675,56.453c-2.442,0-4.54-0.868-6.292-2.603c-1.736-1.752-2.603-3.849-2.603-6.292V25.546
			c0-0.185,0.067-0.345,0.202-0.48c0.118-0.134,0.27-0.202,0.455-0.202c0.185,0,0.345,0.068,0.48,0.202
			c0.117,0.135,0.177,0.295,0.177,0.48v9.452h6.015c0.37,0,0.556,0.186,0.556,0.556c0,0.371-0.186,0.556-0.556,0.556h-6.015v11.448
			c0,2.089,0.741,3.875,2.224,5.357c1.482,1.483,3.269,2.224,5.357,2.224h1.593c0.185,0,0.344,0.059,0.479,0.177
			c0.117,0.135,0.178,0.295,0.178,0.48c0,0.186-0.061,0.337-0.178,0.455c-0.136,0.135-0.295,0.202-0.479,0.202H360.675z"/>
		<path fill="#FFFFFF" d="M375.748,56.453c-2.477,0-4.591-0.885-6.343-2.654c-1.769-1.751-2.653-3.866-2.653-6.343v-3.614
			c0-2.561,0.8-4.7,2.4-6.419c1.601-1.718,3.597-2.578,5.989-2.578h0.076c2.392,0,4.388,0.859,5.989,2.578
			c1.6,1.719,2.4,3.858,2.4,6.419v1.794c0,0.186-0.067,0.346-0.202,0.48c-0.135,0.135-0.295,0.202-0.48,0.202H368.09v1.137
			c0,2.106,0.749,3.909,2.25,5.408c1.499,1.5,3.301,2.249,5.407,2.249h0.102c2.561,0,4.607-1.036,6.141-3.108
			c0.117-0.152,0.269-0.244,0.455-0.278c0.185-0.017,0.345,0.025,0.479,0.126c0.152,0.119,0.244,0.27,0.278,0.455
			c0.017,0.186-0.025,0.346-0.126,0.48c-0.859,1.163-1.921,2.064-3.185,2.704c-1.264,0.641-2.611,0.96-4.043,0.96H375.748z
			 M368.09,44.98h14.178v-1.137c0-2.224-0.666-4.06-1.997-5.509c-1.331-1.432-3.016-2.148-5.054-2.148h-0.076
			c-2.039,0-3.724,0.716-5.054,2.148c-1.331,1.449-1.997,3.285-1.997,5.509V44.98z"/>
		<path fill="#FFFFFF" d="M390.189,56.453c-0.169,0-0.32-0.067-0.455-0.202c-0.136-0.135-0.202-0.286-0.202-0.455V43.868
			c0-2.477,0.875-4.591,2.628-6.343c1.77-1.769,3.892-2.653,6.368-2.653h1.593c0.185,0,0.345,0.068,0.479,0.202
			c0.135,0.135,0.202,0.295,0.202,0.48c0,0.186-0.067,0.346-0.202,0.48c-0.135,0.118-0.295,0.177-0.479,0.177h-1.593
			c-2.106,0-3.908,0.75-5.407,2.249c-1.501,1.5-2.25,3.302-2.25,5.408v11.928c0,0.169-0.067,0.32-0.202,0.455
			S390.374,56.453,390.189,56.453z"/>
		<path fill="#FFFFFF" d="M413.702,56.453c-2.46,0-4.558-0.868-6.292-2.603c-1.736-1.735-2.604-3.833-2.604-6.292v-3.563
			c0-2.443,0.867-4.532,2.604-6.268c1.734-1.751,3.832-2.628,6.292-2.628h0.076c1.583,0,3.049,0.396,4.396,1.188
			c1.314,0.758,2.376,1.786,3.185,3.083V25.546c0-0.168,0.066-0.32,0.202-0.455c0.117-0.134,0.269-0.202,0.455-0.202
			c0.185,0,0.345,0.068,0.48,0.202c0.117,0.135,0.177,0.287,0.177,0.455v22.011c0,2.46-0.868,4.557-2.604,6.292
			s-3.833,2.603-6.292,2.603H413.702z M406.121,47.558c0,2.089,0.741,3.875,2.224,5.357c1.482,1.483,3.269,2.224,5.357,2.224h0.076
			c2.088,0,3.874-0.741,5.357-2.224c1.481-1.482,2.224-3.268,2.224-5.357v-3.563c0-2.089-0.742-3.867-2.224-5.333
			c-1.483-1.482-3.27-2.224-5.357-2.224h-0.076c-2.089,0-3.875,0.741-5.357,2.224c-1.482,1.466-2.224,3.244-2.224,5.333V47.558z"/>
		<path fill="#FFFFFF" d="M438.377,56.453c-2.477,0-4.591-0.876-6.343-2.628c-1.77-1.769-2.653-3.892-2.653-6.368v-3.614
			c0-2.477,0.884-4.599,2.653-6.368c1.752-1.752,3.866-2.628,6.343-2.628h0.102c2.477,0,4.59,0.876,6.343,2.628
			c1.769,1.769,2.653,3.892,2.653,6.368v11.953c0,0.169-0.068,0.32-0.202,0.455c-0.136,0.135-0.295,0.202-0.48,0.202
			s-0.338-0.067-0.455-0.202c-0.135-0.135-0.202-0.286-0.202-0.455v-3.639c-0.809,1.314-1.879,2.351-3.209,3.108
			c-1.382,0.792-2.865,1.188-4.447,1.188H438.377z M430.72,47.457c0,2.106,0.749,3.909,2.249,5.408
			c1.499,1.5,3.302,2.249,5.408,2.249h0.102c2.105,0,3.907-0.75,5.407-2.249c1.499-1.5,2.249-3.302,2.249-5.408v-3.614
			c0-2.105-0.75-3.908-2.249-5.408c-1.5-1.499-3.302-2.249-5.407-2.249h-0.102c-2.106,0-3.909,0.75-5.408,2.249
			c-1.5,1.5-2.249,3.303-2.249,5.408V47.457z"/>
		<path fill="#FFFFFF" d="M454.663,56.453c-0.168,0-0.32-0.067-0.454-0.202c-0.136-0.135-0.202-0.286-0.202-0.455V43.413
			c0-2.443,0.799-4.473,2.4-6.09c1.601-1.634,3.604-2.451,6.015-2.451h0.051c1.769,0,3.352,0.463,4.751,1.39
			c1.364,0.91,2.366,2.14,3.007,3.69c0.623-1.533,1.617-2.763,2.982-3.69c1.397-0.926,2.981-1.39,4.751-1.39h0.075
			c2.392,0,4.388,0.817,5.989,2.451c1.601,1.617,2.4,3.647,2.4,6.09v12.383c0,0.169-0.067,0.32-0.202,0.455
			c-0.118,0.135-0.27,0.202-0.454,0.202c-0.187,0-0.346-0.067-0.48-0.202c-0.136-0.135-0.202-0.286-0.202-0.455V43.413
			c0-2.055-0.674-3.773-2.021-5.155c-1.349-1.365-3.024-2.047-5.029-2.047h-0.075c-2.022,0-3.707,0.682-5.055,2.047
			c-1.349,1.382-2.021,3.1-2.021,5.155v12.383c0,0.169-0.068,0.32-0.202,0.455c-0.118,0.135-0.271,0.202-0.455,0.202
			c-0.186,0-0.346-0.067-0.48-0.202s-0.202-0.286-0.202-0.455V43.413c0-2.055-0.674-3.773-2.021-5.155
			c-1.349-1.365-3.032-2.047-5.054-2.047h-0.051c-2.021,0-3.707,0.682-5.055,2.047c-1.348,1.382-2.021,3.1-2.021,5.155v12.383
			c0,0.169-0.067,0.32-0.202,0.455C455.007,56.386,454.848,56.453,454.663,56.453z"/>
	</g>
	<g>
		<path fill="#FFFFFF" d="M467.301,236.241c-0.202,0-0.378-0.076-0.529-0.228c-0.151-0.151-0.229-0.329-0.229-0.531v-29.971
			c0-0.404,0.194-0.648,0.582-0.733c0.404-0.101,0.689,0.034,0.859,0.404l8.996,18.321l8.997-18.321
			c0.184-0.371,0.471-0.505,0.859-0.404c0.404,0.084,0.606,0.329,0.606,0.733v29.971c0,0.202-0.077,0.379-0.229,0.531
			c-0.152,0.152-0.337,0.228-0.557,0.228c-0.202,0-0.378-0.076-0.529-0.228c-0.151-0.151-0.229-0.329-0.229-0.531v-26.686
			l-8.238,16.755c0.018-0.017,0.018-0.008,0,0.025c-0.017,0.034-0.033,0.06-0.051,0.076l-0.024,0.05
			c-0.018,0.017-0.034,0.034-0.05,0.051c-0.034,0.034-0.06,0.05-0.077,0.05c0,0.017-0.017,0.034-0.051,0.051
			c-0.016,0.017-0.042,0.034-0.074,0.05c-0.019,0-0.026,0.009-0.026,0.025h-0.024c-0.034,0.017-0.06,0.025-0.077,0.025
			c-0.016,0-0.042,0.008-0.074,0.025c-0.035,0-0.06,0-0.077,0c-0.017,0-0.043,0-0.075,0c-0.018,0-0.042,0-0.076,0
			c-0.017,0-0.043,0-0.075,0c-0.018-0.017-0.034-0.025-0.051-0.025c-0.034-0.017-0.06-0.025-0.076-0.025l-0.051-0.025
			c0.018,0.017,0.008,0.017-0.024,0c-0.019-0.017-0.042-0.033-0.077-0.05c-0.016-0.017-0.033-0.034-0.05-0.051
			c0,0.017-0.017,0-0.051-0.05l-0.051-0.051l-0.051-0.05c-0.016-0.034-0.023-0.059-0.023-0.076l-0.026-0.025l-8.238-16.755v26.686
			c0,0.202-0.067,0.379-0.202,0.531c-0.152,0.152-0.227,0.228-0.227,0.228S467.521,236.241,467.301,236.241z"/>
		<path fill="#FFFFFF" d="M509.288,214.685c0.187,0,0.346,0.059,0.481,0.177c0.117,0.135,0.176,0.295,0.176,0.48v11.902
			c0,2.477-0.875,4.6-2.628,6.368c-1.752,1.752-3.866,2.628-6.343,2.628h-0.076c-2.477,0-4.6-0.876-6.368-2.628
			c-1.752-1.769-2.629-3.892-2.629-6.368v-11.902c0-0.185,0.068-0.345,0.202-0.48c0.119-0.118,0.271-0.177,0.455-0.177
			c0.187,0,0.346,0.059,0.481,0.177c0.134,0.135,0.202,0.295,0.202,0.48v11.902c0,2.123,0.749,3.926,2.248,5.408
			c1.482,1.5,3.285,2.249,5.408,2.249h0.076c2.105,0,3.908-0.75,5.408-2.249c1.498-1.482,2.248-3.285,2.248-5.408v-11.902
			c0-0.185,0.059-0.345,0.178-0.48C508.942,214.744,509.103,214.685,509.288,214.685z"/>
		<path fill="#FFFFFF" d="M517.815,236.241c-0.168,0-0.319-0.067-0.455-0.202c-0.134-0.118-0.202-0.27-0.202-0.455v-11.928
			c0-2.477,0.877-4.591,2.629-6.343c1.769-1.751,3.892-2.628,6.368-2.628h0.077c2.476,0,4.59,0.876,6.342,2.628
			c1.753,1.752,2.628,3.867,2.628,6.343v11.928c0,0.186-0.059,0.337-0.176,0.455c-0.136,0.135-0.295,0.202-0.481,0.202
			c-0.185,0-0.346-0.067-0.479-0.202c-0.12-0.118-0.179-0.27-0.179-0.455v-11.928c0-2.105-0.75-3.908-2.248-5.408
			c-1.5-1.5-3.303-2.25-5.407-2.25h-0.077c-2.123,0-3.925,0.75-5.408,2.25c-1.499,1.5-2.248,3.302-2.248,5.408v11.928
			c0,0.169-0.068,0.321-0.202,0.455C518.161,236.173,518.001,236.241,517.815,236.241z"/>
		<path fill="#FFFFFF" d="M543.047,210.187c-0.422,0-0.784-0.152-1.087-0.455c-0.304-0.303-0.455-0.665-0.455-1.086
			c0-0.438,0.151-0.809,0.455-1.112c0.303-0.303,0.665-0.455,1.087-0.455c0.421,0,0.783,0.151,1.086,0.455
			c0.304,0.303,0.455,0.674,0.455,1.112c0,0.421-0.151,0.783-0.455,1.086C543.831,210.035,543.468,210.187,543.047,210.187z
			 M543.047,214.685c-0.186,0-0.346,0.059-0.48,0.177c-0.117,0.135-0.176,0.295-0.176,0.48v20.242c0,0.186,0.059,0.337,0.176,0.455
			c0.135,0.135,0.295,0.202,0.48,0.202c0.185,0,0.345-0.067,0.479-0.202c0.136-0.118,0.202-0.27,0.202-0.455v-20.242
			c0-0.185-0.066-0.345-0.202-0.48C543.392,214.744,543.232,214.685,543.047,214.685z"/>
		<path fill="#FFFFFF" d="M559.181,236.241c-2.477,0-4.6-0.876-6.369-2.628c-1.751-1.769-2.628-3.892-2.628-6.368v-3.588
			c0-2.477,0.877-4.599,2.628-6.368c1.77-1.752,3.893-2.628,6.369-2.628h0.076c1.953,0,3.723,0.582,5.306,1.744
			c0.152,0.119,0.245,0.261,0.279,0.43c0.017,0.186-0.026,0.354-0.127,0.505c-0.117,0.152-0.27,0.245-0.455,0.278
			c-0.168,0.017-0.327-0.025-0.479-0.126c-1.348-0.994-2.855-1.491-4.523-1.491h-0.076c-2.106,0-3.908,0.75-5.408,2.25
			c-1.499,1.5-2.248,3.302-2.248,5.408v3.588c0,2.106,0.749,3.909,2.248,5.408c1.5,1.5,3.302,2.249,5.408,2.249h0.076
			c1.668,0,3.176-0.497,4.523-1.491c0.152-0.101,0.312-0.143,0.479-0.126c0.186,0.034,0.338,0.126,0.455,0.278
			c0.101,0.152,0.144,0.32,0.127,0.505c-0.034,0.169-0.127,0.312-0.279,0.43c-1.583,1.163-3.353,1.744-5.306,1.744H559.181z"/>
		<path fill="#FFFFFF" d="M571.297,236.241c-0.186,0-0.337-0.067-0.454-0.202c-0.136-0.118-0.203-0.27-0.203-0.455v-30.274
			c0-0.185,0.067-0.336,0.203-0.455c0.117-0.134,0.269-0.202,0.454-0.202s0.345,0.068,0.48,0.202
			c0.117,0.119,0.177,0.27,0.177,0.455v13.823c0.809-1.297,1.87-2.325,3.185-3.083c1.364-0.792,2.83-1.188,4.396-1.188h0.076
			c2.459,0,4.565,0.876,6.317,2.628c1.735,1.735,2.604,3.833,2.604,6.292v11.801c0,0.186-0.068,0.337-0.202,0.455
			c-0.118,0.135-0.271,0.202-0.455,0.202c-0.187,0-0.346-0.067-0.48-0.202c-0.118-0.118-0.177-0.27-0.177-0.455v-11.801
			c0-2.089-0.742-3.875-2.224-5.357c-1.483-1.482-3.277-2.224-5.383-2.224h-0.076c-2.089,0-3.875,0.742-5.357,2.224
			c-1.482,1.483-2.224,3.269-2.224,5.357v11.801c0,0.186-0.06,0.337-0.177,0.455C571.642,236.173,571.483,236.241,571.297,236.241z"
			/>
	</g>
	<g>
		<path fill="#FFFFFF" d="M489.233,362.568c-0.067-0.202-0.051-0.396,0.05-0.582c0.086-0.184,0.229-0.312,0.432-0.378
			c0.201-0.067,0.395-0.051,0.58,0.051c0.186,0.084,0.311,0.227,0.38,0.429l9.172,27.747l9.199-27.747
			c0.05-0.202,0.178-0.345,0.38-0.429c0.184-0.102,0.378-0.118,0.58-0.051c0.202,0.066,0.346,0.194,0.431,0.378
			c0.101,0.187,0.117,0.38,0.051,0.582l-9.906,29.921c-0.119,0.354-0.363,0.53-0.734,0.53c-0.354,0-0.589-0.176-0.707-0.53
			L489.233,362.568z"/>
		<path fill="#FFFFFF" d="M522.299,393.02c-2.477,0-4.591-0.884-6.344-2.652c-1.77-1.753-2.652-3.868-2.652-6.345v-3.612
			c0-2.562,0.799-4.7,2.399-6.419c1.602-1.719,3.597-2.577,5.99-2.577h0.074c2.394,0,4.39,0.858,5.99,2.577
			c1.6,1.719,2.4,3.857,2.4,6.419v1.793c0,0.187-0.066,0.346-0.202,0.481c-0.135,0.135-0.296,0.202-0.479,0.202h-14.835v1.136
			c0,2.107,0.75,3.91,2.25,5.408c1.498,1.5,3.302,2.25,5.408,2.25h0.101c2.56,0,4.607-1.037,6.141-3.109
			c0.118-0.151,0.27-0.243,0.454-0.276c0.187-0.018,0.346,0.024,0.481,0.125c0.151,0.119,0.244,0.271,0.277,0.455
			c0.017,0.186-0.024,0.346-0.126,0.481c-0.858,1.162-1.92,2.063-3.184,2.702c-1.264,0.642-2.612,0.961-4.044,0.961H522.299z
			 M514.641,381.546h14.178v-1.136c0-2.224-0.666-4.061-1.997-5.509c-1.33-1.433-3.016-2.149-5.055-2.149h-0.074
			c-2.04,0-3.724,0.717-5.055,2.149c-1.332,1.448-1.997,3.285-1.997,5.509V381.546z"/>
		<path fill="#FFFFFF" d="M537.017,393.02c-0.168,0-0.319-0.067-0.455-0.202c-0.135-0.117-0.202-0.27-0.202-0.455v-11.928
			c0-2.477,0.877-4.591,2.628-6.342c1.77-1.753,3.893-2.629,6.369-2.629h0.076c2.477,0,4.591,0.876,6.342,2.629
			c1.753,1.751,2.629,3.865,2.629,6.342v11.928c0,0.186-0.059,0.338-0.176,0.455c-0.136,0.135-0.296,0.202-0.481,0.202
			s-0.346-0.067-0.479-0.202c-0.119-0.117-0.178-0.27-0.178-0.455v-11.928c0-2.104-0.75-3.908-2.248-5.408
			c-1.5-1.498-3.304-2.248-5.408-2.248h-0.076c-2.123,0-3.926,0.75-5.408,2.248c-1.499,1.5-2.248,3.304-2.248,5.408v11.928
			c0,0.17-0.069,0.321-0.202,0.455C537.363,392.952,537.203,393.02,537.017,393.02z"/>
		<path fill="#FFFFFF" d="M562.25,366.966c-0.423,0-0.784-0.151-1.088-0.455c-0.303-0.303-0.454-0.665-0.454-1.087
			c0-0.438,0.151-0.81,0.454-1.112c0.304-0.304,0.665-0.455,1.088-0.455c0.421,0,0.782,0.151,1.086,0.455
			c0.303,0.303,0.455,0.675,0.455,1.112c0,0.422-0.152,0.784-0.455,1.087C563.032,366.814,562.67,366.966,562.25,366.966z
			 M562.25,371.464c-0.186,0-0.346,0.059-0.481,0.176c-0.117,0.136-0.176,0.296-0.176,0.481v20.241c0,0.186,0.059,0.338,0.176,0.455
			c0.136,0.135,0.296,0.202,0.481,0.202c0.184,0,0.345-0.067,0.479-0.202c0.135-0.117,0.202-0.27,0.202-0.455v-20.241
			c0-0.186-0.067-0.346-0.202-0.481C562.594,371.522,562.433,371.464,562.25,371.464z"/>
		<path fill="#FFFFFF" d="M574.568,382.557c-1.534,0-2.849-0.537-3.942-1.617c-1.08-1.094-1.617-2.407-1.617-3.942
			c0-1.532,0.537-2.838,1.617-3.916c1.094-1.096,2.408-1.644,3.942-1.644h5.735c1.533,0,2.848,0.548,3.942,1.644
			c0.136,0.118,0.202,0.27,0.202,0.455s-0.066,0.346-0.202,0.479c-0.135,0.136-0.295,0.202-0.479,0.202
			c-0.186,0-0.346-0.066-0.481-0.202c-0.809-0.825-1.802-1.237-2.981-1.237h-5.735c-1.162,0-2.157,0.412-2.982,1.237
			c-0.826,0.827-1.239,1.819-1.239,2.981c0,1.163,0.413,2.157,1.239,2.982c0.825,0.827,1.82,1.239,2.982,1.239h5.408
			c1.617,0,3.006,0.58,4.168,1.743c1.146,1.146,1.719,2.536,1.719,4.17c0,1.618-0.572,3.007-1.719,4.169
			c-1.162,1.146-2.551,1.719-4.168,1.719h-6.294c-1.617,0-3.006-0.572-4.169-1.719c-0.119-0.134-0.178-0.294-0.178-0.479
			s0.059-0.346,0.178-0.48c0.134-0.134,0.295-0.202,0.479-0.202c0.186,0,0.346,0.068,0.481,0.202c0.892,0.894,1.962,1.34,3.208,1.34
			h6.294c1.245,0,2.315-0.446,3.208-1.34c0.894-0.892,1.341-1.962,1.341-3.209c0-1.264-0.447-2.342-1.341-3.234
			c-0.893-0.894-1.963-1.341-3.208-1.341H574.568z"/>
		<path fill="#FFFFFF" d="M598.662,393.02c-2.477,0-4.591-0.884-6.343-2.652c-1.769-1.753-2.653-3.868-2.653-6.345v-3.612
			c0-2.562,0.8-4.7,2.4-6.419s3.597-2.577,5.989-2.577h0.076c2.392,0,4.388,0.858,5.989,2.577c1.601,1.719,2.4,3.857,2.4,6.419
			v1.793c0,0.187-0.067,0.346-0.202,0.481c-0.135,0.135-0.295,0.202-0.479,0.202h-14.834v1.136c0,2.107,0.749,3.91,2.249,5.408
			c1.499,1.5,3.301,2.25,5.407,2.25h0.102c2.561,0,4.607-1.037,6.141-3.109c0.117-0.151,0.27-0.243,0.455-0.276
			c0.185-0.018,0.345,0.024,0.48,0.125c0.151,0.119,0.243,0.271,0.277,0.455c0.017,0.186-0.025,0.346-0.126,0.481
			c-0.859,1.162-1.921,2.063-3.185,2.702c-1.264,0.642-2.611,0.961-4.043,0.961H598.662z M591.005,381.546h14.177v-1.136
			c0-2.224-0.666-4.061-1.997-5.509c-1.331-1.433-3.016-2.149-5.054-2.149h-0.076c-2.038,0-3.724,0.717-5.054,2.149
			c-1.331,1.448-1.996,3.285-1.996,5.509V381.546z"/>
	</g>
	<g>
		<path fill="#FFFFFF" d="M550.942,577.636c-0.202,0-0.378-0.076-0.529-0.229c-0.151-0.151-0.229-0.327-0.229-0.529v-30.072
			c0-0.389,0.186-0.633,0.556-0.734c0.389-0.101,0.684,0.019,0.886,0.354l15.921,27.597v-27.216c0-0.22,0.074-0.404,0.227-0.557
			c0.135-0.135,0.311-0.202,0.531-0.202c0.219,0,0.396,0.067,0.53,0.202c0.151,0.152,0.228,0.337,0.228,0.557v30.072
			c0,0.387-0.186,0.631-0.556,0.731c-0.068,0.019-0.136,0.026-0.202,0.026c-0.287,0-0.505-0.127-0.657-0.38l-15.92-27.596v27.218
			c0,0.202-0.077,0.378-0.229,0.529C551.346,577.56,551.162,577.636,550.942,577.636z"/>
		<path fill="#FFFFFF" d="M584.741,577.636c-2.477,0-4.592-0.876-6.342-2.628c-1.77-1.769-2.655-3.892-2.655-6.368v-3.615
			c0-2.477,0.886-4.599,2.655-6.368c1.75-1.751,3.865-2.628,6.342-2.628h0.101c2.477,0,4.592,0.877,6.345,2.628
			c1.769,1.77,2.652,3.892,2.652,6.368v11.954c0,0.168-0.067,0.319-0.202,0.455c-0.135,0.135-0.295,0.202-0.479,0.202
			c-0.186,0-0.338-0.067-0.455-0.202c-0.135-0.136-0.202-0.287-0.202-0.455v-3.639c-0.809,1.314-1.879,2.35-3.21,3.107
			c-1.381,0.792-2.864,1.188-4.448,1.188H584.741z M577.084,568.64c0,2.105,0.749,3.908,2.248,5.408
			c1.5,1.499,3.303,2.248,5.408,2.248h0.101c2.107,0,3.909-0.749,5.408-2.248c1.5-1.5,2.25-3.303,2.25-5.408v-3.615
			c0-2.104-0.75-3.907-2.25-5.407c-1.499-1.498-3.301-2.249-5.408-2.249h-0.101c-2.105,0-3.908,0.751-5.408,2.249
			c-1.499,1.5-2.248,3.303-2.248,5.407V568.64z"/>
		<path fill="#FFFFFF" d="M600.647,587.644c-0.185,0-0.337-0.069-0.455-0.202c-0.134-0.119-0.202-0.271-0.202-0.455V565
			c0-2.46,0.867-4.557,2.604-6.293c1.734-1.734,3.832-2.602,6.291-2.602h0.077c2.458,0,4.557,0.867,6.291,2.602
			c1.736,1.736,2.604,3.833,2.604,6.293v3.538c0,2.46-0.868,4.558-2.604,6.292c-1.734,1.736-3.833,2.604-6.291,2.604h-0.077
			c-1.566,0-3.032-0.388-4.396-1.162c-1.314-0.759-2.376-1.786-3.185-3.083v13.798c0,0.184-0.059,0.336-0.176,0.455
			C600.993,587.574,600.833,587.644,600.647,587.644z M601.304,568.538c0,2.089,0.742,3.875,2.224,5.357
			c1.483,1.482,3.27,2.225,5.357,2.225h0.077c2.088,0,3.873-0.742,5.357-2.225c1.481-1.482,2.224-3.269,2.224-5.357V565
			c0-2.089-0.742-3.875-2.224-5.357c-1.484-1.482-3.27-2.224-5.357-2.224h-0.077c-2.088,0-3.874,0.741-5.357,2.224
			c-1.481,1.482-2.224,3.269-2.224,5.357V568.538z"/>
		<path fill="#FFFFFF" d="M628.76,577.585c-1.769-0.792-3.176-2.005-4.221-3.639c-1.062-1.617-1.591-3.395-1.591-5.333v-21.936
			c0-0.184,0.066-0.345,0.202-0.479c0.117-0.118,0.269-0.179,0.454-0.179c0.185,0,0.345,0.061,0.479,0.179
			c0.118,0.134,0.178,0.295,0.178,0.479v21.936c0,1.668,0.463,3.21,1.389,4.626c0.91,1.397,2.123,2.441,3.64,3.133
			c0.169,0.067,0.287,0.186,0.354,0.354c0.067,0.185,0.059,0.354-0.024,0.505c-0.101,0.27-0.303,0.404-0.606,0.404
			C628.928,577.636,628.843,577.619,628.76,577.585z"/>
		<path fill="#FFFFFF" d="M642.393,577.636c-2.477,0-4.592-0.886-6.345-2.654c-1.769-1.751-2.652-3.865-2.652-6.342v-3.615
			c0-2.56,0.8-4.7,2.4-6.419c1.601-1.718,3.597-2.577,5.99-2.577h0.074c2.393,0,4.39,0.859,5.99,2.577
			c1.6,1.719,2.4,3.859,2.4,6.419v1.796c0,0.185-0.067,0.346-0.202,0.479c-0.136,0.136-0.296,0.202-0.479,0.202h-14.835v1.139
			c0,2.105,0.75,3.908,2.25,5.408c1.498,1.499,3.302,2.248,5.408,2.248h0.101c2.56,0,4.607-1.035,6.14-3.107
			c0.118-0.152,0.27-0.245,0.455-0.279c0.187-0.016,0.346,0.026,0.481,0.127c0.151,0.118,0.242,0.27,0.277,0.455
			c0.016,0.186-0.024,0.346-0.126,0.479c-0.859,1.162-1.921,2.064-3.184,2.705c-1.264,0.64-2.612,0.96-4.044,0.96H642.393z
			 M634.735,566.163h14.178v-1.139c0-2.224-0.667-4.06-1.997-5.509c-1.33-1.432-3.016-2.147-5.055-2.147h-0.074
			c-2.04,0-3.725,0.716-5.055,2.147c-1.332,1.449-1.997,3.285-1.997,5.509V566.163z"/>
		<path fill="#FFFFFF" d="M659.587,567.174c-1.533,0-2.848-0.54-3.942-1.617c-1.079-1.096-1.617-2.41-1.617-3.942
			c0-1.533,0.538-2.839,1.617-3.918c1.095-1.094,2.409-1.642,3.942-1.642h5.736c1.532,0,2.847,0.548,3.942,1.642
			c0.134,0.119,0.202,0.271,0.202,0.455c0,0.186-0.068,0.346-0.202,0.48c-0.136,0.135-0.295,0.202-0.48,0.202
			s-0.346-0.067-0.479-0.202c-0.81-0.825-1.804-1.239-2.982-1.239h-5.736c-1.163,0-2.157,0.414-2.982,1.239s-1.238,1.82-1.238,2.982
			s0.413,2.156,1.238,2.981s1.819,1.237,2.982,1.237h5.408c1.617,0,3.007,0.583,4.169,1.745c1.146,1.146,1.719,2.535,1.719,4.169
			c0,1.617-0.573,3.008-1.719,4.171c-1.162,1.145-2.552,1.718-4.169,1.718h-6.293c-1.617,0-3.007-0.573-4.17-1.718
			c-0.118-0.136-0.177-0.296-0.177-0.481c0-0.185,0.059-0.345,0.177-0.479c0.135-0.136,0.295-0.202,0.48-0.202
			c0.185,0,0.345,0.066,0.48,0.202c0.893,0.893,1.962,1.339,3.209,1.339h6.293c1.246,0,2.315-0.446,3.209-1.339
			c0.893-0.894,1.34-1.963,1.34-3.21c0-1.264-0.447-2.342-1.34-3.235c-0.894-0.892-1.963-1.338-3.209-1.338H659.587z"/>
	</g>
	<g>
		<path fill="#FFFFFF" d="M350.292,548.662c0.118,0.17,0.168,0.354,0.151,0.556c-0.034,0.202-0.135,0.372-0.303,0.506
			c-0.135,0.101-0.287,0.151-0.455,0.151c-0.253,0-0.455-0.101-0.606-0.303l-7.506-9.957h-6.242v9.502
			c0,0.202-0.068,0.38-0.202,0.531c-0.152,0.152-0.337,0.227-0.556,0.227c-0.202,0-0.379-0.074-0.531-0.227
			c-0.151-0.151-0.227-0.329-0.227-0.531v-29.996c0-0.202,0.076-0.38,0.227-0.531c0.152-0.151,0.329-0.227,0.531-0.227h8.238
			c2.932,0,5.441,1.035,7.531,3.107c2.072,2.091,3.109,4.591,3.109,7.507c0,2.83-0.969,5.264-2.907,7.302
			c-1.92,2.04-4.279,3.143-7.076,3.312L350.292,548.662z M342.812,538.099c2.51,0,4.658-0.892,6.444-2.679
			c1.786-1.785,2.679-3.933,2.679-6.442c0-2.494-0.893-4.634-2.679-6.419c-1.786-1.786-3.934-2.679-6.444-2.679h-7.48v18.219
			H342.812z"/>
		<path fill="#FFFFFF" d="M366.527,549.875c-2.477,0-4.591-0.875-6.343-2.628c-1.752-1.751-2.628-3.865-2.628-6.342v-3.589
			c0-2.46,0.876-4.565,2.628-6.317c1.752-1.753,3.866-2.628,6.343-2.628h0.077c2.477,0,4.59,0.875,6.342,2.628
			c1.753,1.752,2.628,3.857,2.628,6.317v3.589c0,2.477-0.875,4.591-2.628,6.342c-1.752,1.753-3.865,2.628-6.342,2.628H366.527z
			 M358.896,540.905c0,2.105,0.74,3.907,2.223,5.408c1.5,1.481,3.303,2.224,5.408,2.224h0.077c2.104,0,3.899-0.742,5.382-2.224
			c1.5-1.501,2.25-3.303,2.25-5.408v-3.589c0-2.106-0.75-3.899-2.25-5.384c-1.482-1.498-3.277-2.248-5.382-2.248h-0.077
			c-2.105,0-3.908,0.75-5.408,2.248c-1.482,1.484-2.223,3.277-2.223,5.384V540.905z"/>
		<path fill="#FFFFFF" d="M381.827,549.875c-0.167,0-0.319-0.066-0.454-0.202c-0.135-0.133-0.202-0.285-0.202-0.455v-12.383
			c0-2.441,0.8-4.472,2.401-6.089c1.6-1.635,3.604-2.452,6.015-2.452h0.051c1.769,0,3.352,0.464,4.751,1.391
			c1.364,0.91,2.366,2.139,3.006,3.689c0.624-1.533,1.617-2.764,2.981-3.689c1.399-0.927,2.982-1.391,4.751-1.391h0.077
			c2.392,0,4.388,0.817,5.988,2.452c1.602,1.617,2.401,3.647,2.401,6.089v12.383c0,0.17-0.068,0.322-0.202,0.455
			c-0.119,0.136-0.271,0.202-0.454,0.202c-0.187,0-0.346-0.066-0.481-0.202c-0.135-0.133-0.202-0.285-0.202-0.455v-12.383
			c0-2.054-0.674-3.772-2.021-5.155c-1.348-1.364-3.024-2.046-5.028-2.046h-0.077c-2.021,0-3.705,0.682-5.054,2.046
			c-1.348,1.383-2.021,3.102-2.021,5.155v12.383c0,0.17-0.067,0.322-0.202,0.455c-0.117,0.136-0.27,0.202-0.455,0.202
			s-0.346-0.066-0.479-0.202c-0.135-0.133-0.202-0.285-0.202-0.455v-12.383c0-2.054-0.675-3.772-2.021-5.155
			c-1.349-1.364-3.032-2.046-5.054-2.046h-0.051c-2.021,0-3.708,0.682-5.055,2.046c-1.349,1.383-2.021,3.102-2.021,5.155v12.383
			c0,0.17-0.068,0.322-0.202,0.455C382.172,549.809,382.013,549.875,381.827,549.875z"/>
		<path fill="#FFFFFF" d="M427.604,549.875c-2.477,0-4.592-0.883-6.342-2.652c-1.77-1.753-2.655-3.867-2.655-6.344v-3.613
			c0-2.562,0.801-4.7,2.402-6.418c1.599-1.719,3.597-2.578,5.988-2.578h0.076c2.393,0,4.389,0.859,5.989,2.578
			c1.6,1.718,2.4,3.856,2.4,6.418v1.794c0,0.186-0.067,0.346-0.202,0.48c-0.136,0.135-0.295,0.202-0.479,0.202h-14.834v1.137
			c0,2.106,0.749,3.91,2.248,5.408c1.5,1.5,3.303,2.25,5.408,2.25h0.101c2.561,0,4.608-1.037,6.142-3.109
			c0.117-0.151,0.269-0.244,0.454-0.277c0.187-0.017,0.346,0.024,0.481,0.126c0.151,0.119,0.243,0.271,0.277,0.454
			c0.016,0.187-0.024,0.346-0.126,0.481c-0.859,1.162-1.92,2.064-3.184,2.703c-1.264,0.641-2.612,0.96-4.045,0.96H427.604z
			 M419.948,538.402h14.177v-1.137c0-2.224-0.667-4.061-1.997-5.509c-1.33-1.433-3.016-2.149-5.054-2.149h-0.076
			c-2.038,0-3.723,0.717-5.055,2.149c-1.33,1.448-1.995,3.285-1.995,5.509V538.402z"/>
	</g>
</g>
<g id="Calque_6">
	<path fill="none" stroke="#FFFFFF" stroke-width="4" stroke-miterlimit="10" d="M307.441,447.797
		c80.047-57.967,104.201,33.813,153.54,77.287"/>
	<path fill="none" stroke="#FFFFFF" stroke-width="4" stroke-miterlimit="10" d="M460.981,525.084
		c32.089,10.696,44.165,20.874,53.825,41.748"/>
	<path fill="none" stroke="#FFFFFF" stroke-width="4" stroke-miterlimit="10" d="M514.806,566.832
		c33.124-98.679-135.252-137.679-56.585-191.839"/>
	<path fill="none" stroke="#FFFFFF" stroke-width="4" stroke-miterlimit="10" d="M434.414,253.197
		c120.418,43.135,10.648,121.796,23.808,121.796"/>
	<path fill="none" stroke="#FFFFFF" stroke-width="4" stroke-miterlimit="10" d="M226.359,45.149
		c53.826,92.47,230.138,145.26,205.984,206.329"/>
	<path fill="none" stroke="#FFFFFF" stroke-width="4" stroke-miterlimit="10" d="M226.359,45.149
		c0,41.384-25.187,54.517-18.632,74.872"/>
	<g>
		<path fill="#FFFFFF" d="M137.803,460.68c-0.404,0-0.758-0.143-1.062-0.43c-0.287-0.304-0.43-0.657-0.43-1.062v-29.314
			c0-0.354,0.109-0.665,0.329-0.936c0.219-0.269,0.497-0.438,0.834-0.505c0.336-0.084,0.657-0.051,0.96,0.101
			c0.32,0.152,0.556,0.38,0.708,0.683l8.137,16.553l8.112-16.553c0.152-0.303,0.387-0.53,0.708-0.683
			c0.32-0.151,0.648-0.185,0.986-0.101c0.336,0.067,0.614,0.236,0.834,0.505c0.219,0.271,0.328,0.582,0.328,0.936v29.314
			c0,0.404-0.151,0.758-0.455,1.062c-0.287,0.287-0.641,0.43-1.062,0.43c-0.404,0-0.75-0.143-1.036-0.43
			c-0.303-0.304-0.455-0.657-0.455-1.062v-22.87l-6.621,13.494c-0.287,0.557-0.733,0.834-1.339,0.834
			c-0.624,0-1.07-0.277-1.339-0.834l-6.646-13.494v22.87c0,0.404-0.144,0.758-0.43,1.062c-0.286,0.287-0.429,0.43-0.429,0.43
			S138.224,460.68,137.803,460.68z"/>
		<path fill="#FFFFFF" d="M171.475,460.68c-2.628,0-4.869-0.936-6.722-2.806c-1.87-1.853-2.805-4.094-2.805-6.722v-3.538
			c0-2.628,0.935-4.868,2.805-6.723c1.853-1.869,4.094-2.805,6.722-2.805h0.076c2.628,0,4.869,0.936,6.722,2.805
			c1.87,1.854,2.805,4.095,2.805,6.723v3.538c0,2.628-0.935,4.869-2.805,6.722c-1.854,1.87-4.094,2.806-6.722,2.806H171.475z
			 M164.576,451.152c0,1.904,0.674,3.529,2.021,4.877c1.348,1.349,2.974,2.021,4.877,2.021h0.076c1.903,0,3.529-0.673,4.877-2.021
			c1.348-1.348,2.021-2.973,2.021-4.877v-3.538c0-1.903-0.674-3.529-2.021-4.877c-1.348-1.348-2.974-2.022-4.877-2.022h-0.076
			c-1.904,0-3.53,0.675-4.877,2.022s-2.021,2.974-2.021,4.877V451.152z"/>
		<path fill="#FFFFFF" d="M187.356,460.68c-0.371,0-0.682-0.127-0.935-0.38c-0.253-0.252-0.379-0.563-0.379-0.935v-11.65
			c0-2.61,0.926-4.834,2.78-6.671c1.836-1.854,4.06-2.78,6.671-2.78h0.076c2.611,0,4.835,0.927,6.672,2.78
			c1.853,1.837,2.78,4.061,2.78,6.671v11.65c0,0.371-0.126,0.683-0.379,0.935c-0.252,0.253-0.564,0.38-0.935,0.38
			c-0.354,0-0.657-0.127-0.91-0.38c-0.27-0.252-0.404-0.563-0.404-0.935v-11.65c0-1.886-0.666-3.495-1.996-4.826
			c-1.332-1.33-2.94-1.997-4.827-1.997h-0.076c-1.887,0-3.496,0.667-4.827,1.997c-1.332,1.331-1.997,2.94-1.997,4.826v11.65
			c0,0.371-0.135,0.683-0.404,0.935C188.014,460.553,187.71,460.68,187.356,460.68z"/>
		<path fill="#FFFFFF" d="M219.664,460.68c-2.628,0-4.87-0.936-6.722-2.806c-1.87-1.853-2.805-4.094-2.805-6.722v-3.538
			c0-2.628,0.935-4.877,2.805-6.747c1.853-1.854,4.094-2.78,6.722-2.78h0.076c2.628,0,4.877,0.927,6.747,2.78
			c1.853,1.87,2.78,4.119,2.78,6.747v11.751c0,0.354-0.126,0.666-0.379,0.935c-0.27,0.253-0.581,0.38-0.935,0.38
			c-0.371,0-0.682-0.127-0.935-0.38c-0.252-0.269-0.379-0.581-0.379-0.935v-1.643c-1.887,1.971-4.187,2.957-6.899,2.957H219.664z
			 M212.765,451.152c0,1.904,0.674,3.529,2.022,4.877c1.347,1.349,2.973,2.021,4.877,2.021h0.076c1.903,0,3.529-0.673,4.877-2.021
			c1.347-1.348,2.021-2.973,2.021-4.877v-3.538c0-1.903-0.674-3.529-2.021-4.877c-1.348-1.348-2.974-2.022-4.877-2.022h-0.076
			c-1.904,0-3.53,0.675-4.877,2.022c-1.348,1.348-2.022,2.974-2.022,4.877V451.152z"/>
		<path fill="#FFFFFF" d="M243.404,460.68c-2.628,0-4.869-0.936-6.722-2.806c-1.87-1.853-2.805-4.094-2.805-6.722v-3.538
			c0-2.628,0.935-4.877,2.805-6.747c1.853-1.854,4.094-2.78,6.722-2.78h0.076c2.072,0,3.951,0.615,5.636,1.845
			c0.286,0.22,0.455,0.506,0.505,0.859c0.067,0.354-0.009,0.683-0.228,0.985c-0.219,0.287-0.505,0.464-0.859,0.531
			c-0.371,0.05-0.699-0.034-0.985-0.253c-1.213-0.893-2.569-1.34-4.069-1.34h-0.076c-1.904,0-3.53,0.675-4.877,2.022
			c-1.348,1.348-2.022,2.974-2.022,4.877v3.538c0,1.904,0.674,3.529,2.022,4.877c1.347,1.349,2.973,2.021,4.877,2.021h0.076
			c1.5,0,2.856-0.445,4.069-1.339c0.286-0.219,0.615-0.304,0.985-0.253c0.354,0.051,0.64,0.228,0.859,0.53
			c0.219,0.287,0.295,0.616,0.228,0.986c-0.051,0.354-0.219,0.641-0.505,0.858c-1.685,1.23-3.563,1.846-5.636,1.846H243.404z"/>
		<path fill="#FFFFFF" d="M262.925,460.68c-2.628,0-4.869-0.936-6.722-2.806c-1.87-1.853-2.805-4.094-2.805-6.722v-3.538
			c0-2.628,0.935-4.868,2.805-6.723c1.853-1.869,4.094-2.805,6.722-2.805H263c2.628,0,4.869,0.936,6.722,2.805
			c1.87,1.854,2.805,4.095,2.805,6.723v3.538c0,2.628-0.935,4.869-2.805,6.722c-1.854,1.87-4.094,2.806-6.722,2.806H262.925z
			 M256.026,451.152c0,1.904,0.673,3.529,2.021,4.877c1.348,1.349,2.974,2.021,4.877,2.021H263c1.903,0,3.529-0.673,4.877-2.021
			c1.347-1.348,2.021-2.973,2.021-4.877v-3.538c0-1.903-0.674-3.529-2.021-4.877c-1.348-1.348-2.974-2.022-4.877-2.022h-0.076
			c-1.904,0-3.53,0.675-4.877,2.022c-1.348,1.348-2.021,2.974-2.021,4.877V451.152z"/>
	</g>
	<g>
		<path fill="#FFFFFF" d="M109.843,172.166c-0.404,0-0.758-0.143-1.062-0.43c-0.287-0.303-0.43-0.657-0.43-1.062V141.31
			c0-0.404,0.143-0.749,0.43-1.036c0.303-0.303,0.657-0.455,1.062-0.455h7.228c3.065,0,5.686,1.096,7.859,3.286
			c2.19,2.173,3.285,4.793,3.285,7.859c0,3.505-1.364,6.369-4.094,8.592c1.213,0.505,2.19,1.298,2.932,2.375
			c0.775,1.112,1.162,2.342,1.162,3.689c0,1.804-0.64,3.345-1.92,4.625c-1.281,1.281-2.822,1.921-4.625,1.921H109.843z
			 M111.333,159.076h5.737c2.24,0,4.161-0.792,5.762-2.375c1.583-1.583,2.375-3.496,2.375-5.737c0-2.24-0.792-4.16-2.375-5.762
			c-1.601-1.583-3.521-2.375-5.762-2.375h-5.737V159.076z M111.333,169.184h10.336c0.977,0,1.811-0.354,2.502-1.062
			c0.69-0.69,1.036-1.524,1.036-2.502c0-0.977-0.346-1.811-1.036-2.502c-0.691-0.69-1.525-1.036-2.502-1.036h-10.336V169.184z"/>
		<path fill="#FFFFFF" d="M135.226,172.166c-0.354,0-0.666-0.126-0.935-0.379c-0.252-0.269-0.379-0.581-0.379-0.935v-11.751
			c0-2.628,0.935-4.877,2.805-6.748c1.853-1.853,4.094-2.78,6.722-2.78h1.592c0.354,0,0.665,0.126,0.935,0.379
			c0.253,0.253,0.379,0.565,0.379,0.935c0,0.371-0.126,0.682-0.379,0.935c-0.27,0.253-0.581,0.379-0.935,0.379h-1.592
			c-1.904,0-3.53,0.674-4.877,2.022c-1.348,1.348-2.021,2.974-2.021,4.877v11.751c0,0.354-0.126,0.666-0.379,0.935
			C135.908,172.04,135.596,172.166,135.226,172.166z"/>
		<path fill="#FFFFFF" d="M168.948,149.75c0.371,0,0.683,0.126,0.935,0.379c0.253,0.253,0.379,0.565,0.379,0.935v11.65
			c0,2.612-0.927,4.836-2.78,6.672c-1.836,1.854-4.061,2.78-6.671,2.78h-0.076c-2.612,0-4.835-0.926-6.672-2.78
			c-1.853-1.836-2.779-4.06-2.779-6.672v-11.65c0-0.37,0.126-0.682,0.379-0.935c0.252-0.252,0.564-0.379,0.935-0.379
			c0.354,0,0.657,0.126,0.91,0.379c0.27,0.253,0.404,0.565,0.404,0.935v11.65c0,1.888,0.665,3.497,1.997,4.827
			c1.331,1.331,2.939,1.996,4.827,1.996h0.076c1.887,0,3.496-0.665,4.827-1.996c1.331-1.331,1.997-2.939,1.997-4.827v-11.65
			c0-0.37,0.134-0.682,0.404-0.935C168.292,149.877,168.595,149.75,168.948,149.75z"/>
		<path fill="#FFFFFF" d="M175.581,171.888c-0.287-0.219-0.455-0.514-0.505-0.885c-0.051-0.354,0.033-0.673,0.252-0.96l7.025-9.198
			l-7.025-9.199c-0.219-0.286-0.303-0.615-0.252-0.986c0.05-0.354,0.219-0.648,0.505-0.884c0.286-0.218,0.614-0.303,0.985-0.253
			c0.371,0.051,0.665,0.22,0.885,0.506l6.57,8.617l6.57-8.617c0.219-0.286,0.514-0.455,0.885-0.506
			c0.354-0.05,0.682,0.035,0.985,0.253c0.286,0.236,0.455,0.531,0.505,0.884c0.051,0.371-0.034,0.7-0.252,0.986l-7.025,9.199
			l7.025,9.198c0.219,0.287,0.303,0.607,0.252,0.96c-0.05,0.371-0.219,0.666-0.505,0.885c-0.236,0.186-0.505,0.278-0.809,0.278
			c-0.438,0-0.792-0.177-1.062-0.531l-6.57-8.617l-6.57,8.617c-0.27,0.354-0.624,0.531-1.062,0.531
			C176.086,172.166,175.816,172.074,175.581,171.888z"/>
		<path fill="#FFFFFF" d="M206.068,172.166c-2.628,0-4.869-0.935-6.722-2.805c-1.87-1.853-2.805-4.094-2.805-6.722v-3.563
			c0-2.712,0.851-4.979,2.553-6.798c1.701-1.82,3.824-2.729,6.368-2.729h0.076c2.544,0,4.667,0.91,6.368,2.729
			c1.702,1.819,2.553,4.085,2.553,6.798v1.794c0,0.354-0.126,0.657-0.379,0.91c-0.252,0.27-0.564,0.404-0.935,0.404h-13.975v0.455
			c0,1.904,0.674,3.53,2.021,4.877c1.348,1.349,2.974,2.021,4.877,2.021h0.076c2.308,0,4.153-0.935,5.535-2.805
			c0.219-0.304,0.513-0.48,0.884-0.531c0.354-0.051,0.682,0.034,0.985,0.252c0.286,0.219,0.455,0.505,0.506,0.859
			c0.05,0.371-0.034,0.699-0.253,0.985c-0.91,1.23-2.03,2.183-3.361,2.856c-1.332,0.674-2.763,1.011-4.296,1.011H206.068z
			 M199.169,159.53h12.661v-0.455c0-1.987-0.59-3.63-1.769-4.928c-1.196-1.297-2.704-1.946-4.523-1.946h-0.076
			c-1.819,0-3.319,0.649-4.498,1.946c-1.197,1.298-1.794,2.94-1.794,4.928V159.53z"/>
		<path fill="#FFFFFF" d="M225.513,172.04c-1.853-0.825-3.328-2.088-4.422-3.791c-1.112-1.701-1.668-3.563-1.668-5.585v-21.556
			c0-0.354,0.126-0.657,0.379-0.91c0.252-0.253,0.556-0.379,0.91-0.379c0.371,0,0.682,0.126,0.935,0.379
			c0.252,0.252,0.379,0.556,0.379,0.91v21.556c0,1.5,0.413,2.89,1.238,4.169c0.825,1.281,1.929,2.224,3.311,2.831
			c0.336,0.152,0.564,0.396,0.682,0.733c0.135,0.337,0.126,0.666-0.025,0.985c-0.236,0.523-0.632,0.784-1.188,0.784
			C225.858,172.166,225.681,172.125,225.513,172.04z"/>
		<path fill="#FFFFFF" d="M238.387,172.04c-1.853-0.825-3.328-2.088-4.422-3.791c-1.112-1.701-1.668-3.563-1.668-5.585v-21.556
			c0-0.354,0.126-0.657,0.379-0.91c0.252-0.253,0.556-0.379,0.91-0.379c0.371,0,0.682,0.126,0.935,0.379
			c0.252,0.252,0.379,0.556,0.379,0.91v21.556c0,1.5,0.413,2.89,1.238,4.169c0.825,1.281,1.929,2.224,3.311,2.831
			c0.336,0.152,0.564,0.396,0.682,0.733c0.135,0.337,0.126,0.666-0.025,0.985c-0.236,0.523-0.632,0.784-1.188,0.784
			C238.732,172.166,238.555,172.125,238.387,172.04z"/>
		<path fill="#FFFFFF" d="M253.308,172.166c-2.628,0-4.87-0.935-6.722-2.805c-1.87-1.853-2.805-4.094-2.805-6.722v-3.563
			c0-2.712,0.851-4.979,2.552-6.798c1.701-1.82,3.824-2.729,6.368-2.729h0.076c2.543,0,4.667,0.91,6.368,2.729
			c1.701,1.819,2.552,4.085,2.552,6.798v1.794c0,0.354-0.126,0.657-0.379,0.91c-0.253,0.27-0.564,0.404-0.935,0.404h-13.975v0.455
			c0,1.904,0.674,3.53,2.022,4.877c1.347,1.349,2.973,2.021,4.877,2.021h0.076c2.308,0,4.152-0.935,5.534-2.805
			c0.219-0.304,0.514-0.48,0.885-0.531c0.354-0.051,0.682,0.034,0.985,0.252c0.286,0.219,0.455,0.505,0.505,0.859
			c0.051,0.371-0.034,0.699-0.252,0.985c-0.91,1.23-2.03,2.183-3.361,2.856c-1.331,0.674-2.763,1.011-4.296,1.011H253.308z
			 M246.409,159.53h12.661v-0.455c0-1.987-0.59-3.63-1.769-4.928c-1.196-1.297-2.704-1.946-4.523-1.946h-0.076
			c-1.819,0-3.319,0.649-4.498,1.946c-1.196,1.298-1.794,2.94-1.794,4.928V159.53z"/>
		<path fill="#FFFFFF" d="M271.186,161.855c-1.702,0-3.151-0.598-4.347-1.794c-1.196-1.213-1.794-2.662-1.794-4.347
			c0-1.684,0.598-3.133,1.794-4.347c1.196-1.196,2.645-1.794,4.347-1.794h5.661c1.701,0,3.15,0.598,4.347,1.794
			c0.253,0.27,0.379,0.582,0.379,0.935c0,0.371-0.126,0.683-0.379,0.935c-0.252,0.253-0.564,0.379-0.935,0.379
			c-0.371,0-0.682-0.126-0.935-0.379c-0.674-0.69-1.5-1.036-2.477-1.036h-5.661c-0.96,0-1.786,0.346-2.477,1.036
			c-0.691,0.691-1.036,1.517-1.036,2.477c0,0.96,0.345,1.786,1.036,2.477c0.69,0.691,1.516,1.036,2.477,1.036h5.332
			c1.786,0,3.311,0.632,4.574,1.896s1.896,2.789,1.896,4.574c0,1.786-0.632,3.31-1.896,4.574s-2.789,1.896-4.574,1.896h-6.191
			c-1.786,0-3.311-0.632-4.574-1.896c-0.253-0.252-0.379-0.564-0.379-0.935c0-0.37,0.126-0.682,0.379-0.935
			c0.252-0.252,0.564-0.379,0.935-0.379c0.354,0,0.657,0.126,0.91,0.379c0.758,0.758,1.668,1.137,2.729,1.137h6.191
			c1.062,0,1.963-0.379,2.704-1.137c0.758-0.741,1.137-1.643,1.137-2.704c0-1.062-0.379-1.971-1.137-2.729
			c-0.741-0.741-1.643-1.112-2.704-1.112H271.186z"/>
	</g>
</g>
</svg>
